<svg width="24" height="24" viewBox="0 0 24 24" fill="none" xmlns="http://www.w3.org/2000/svg">
<g clip-path="url(#clip0_1483_10413)">
<path d="M2.82422 0H21.1875C22.3403 0.114688 23.1748 0.674531 23.6911 1.67953C23.8667 2.02109 23.9697 2.40375 24 2.8275V15.1781C23.8866 16.5277 22.9575 17.6541 21.6281 17.9348C21.4272 17.9773 21.1162 17.9988 20.6953 17.9991C18.2537 18.0006 15.8103 18.0008 13.365 17.9995C13.3461 17.9995 13.3279 18.0056 13.313 18.0169C10.7498 19.9391 8.18547 21.8612 5.61984 23.7834C5.46484 23.8997 5.28984 23.9719 5.09484 24H4.90922C4.47484 23.9209 4.19531 23.7063 4.07062 23.3559C4.02125 23.2178 3.99688 22.9489 3.9975 22.5492C4 21.0417 4.00016 19.5338 3.99797 18.0253C3.99797 18.0088 3.98969 18.0005 3.97312 18.0005C3.48188 17.9991 2.91375 18.0305 2.4825 17.9536C1.10859 17.7094 0.104531 16.5759 0 15.1748V2.81297C0.121406 1.26937 1.28391 0.134531 2.82422 0ZM4.99219 16.0003C5.41031 16.0012 5.79562 16.2595 5.93437 16.6444C5.97875 16.7672 6.00078 17.0017 6.00047 17.348C5.99953 18.5592 5.99953 19.7687 6.00047 20.9766C6.0004 20.9786 6.00092 20.9806 6.00195 20.9824C6.00299 20.9841 6.0045 20.9856 6.00632 20.9865C6.00814 20.9874 6.01018 20.9878 6.01222 20.9877C6.01425 20.9875 6.01619 20.9867 6.01781 20.9855C8.15188 19.3867 10.2847 17.7922 12.4163 16.2019C12.5947 16.0688 12.7958 16.002 13.0195 16.0017C15.6433 16.0002 18.267 15.9991 20.8908 15.9984C21.3586 15.9984 21.7603 15.8184 21.9258 15.3633C21.9752 15.2267 21.9998 14.9739 21.9998 14.6048C21.9989 10.7742 21.9986 6.94359 21.9989 3.11297C21.9989 2.62922 21.8161 2.235 21.3412 2.06484C21.2219 2.02203 21.0464 2.00063 20.8148 2.00063C14.9917 2.00156 9.16844 2.00141 3.345 2.00016C3.00875 2.00016 2.77375 2.02422 2.64 2.07234C2.18016 2.23828 2.00156 2.63953 2.00156 3.11063C2.00063 7.03594 2.00063 10.9612 2.00156 14.8866C2.00156 15.3731 2.18391 15.7645 2.66109 15.9366C2.77734 15.9784 2.94312 15.9994 3.15844 15.9994C3.77 15.9991 4.38125 15.9994 4.99219 16.0003Z" fill="#FFA800"/>
<path d="M18.0127 5.0011H5.98736C5.44448 5.0011 5.00439 5.44119 5.00439 5.98407V6.015C5.00439 6.55788 5.44448 6.99797 5.98736 6.99797H18.0127C18.5556 6.99797 18.9956 6.55788 18.9956 6.015V5.98407C18.9956 5.44119 18.5556 5.0011 18.0127 5.0011Z" fill="#FFA800"/>
<path d="M18.0104 7.99829H5.98973C5.44581 7.99829 5.00488 8.43922 5.00488 8.98313V9.01313C5.00488 9.55705 5.44581 9.99798 5.98973 9.99798H18.0104C18.5543 9.99798 18.9952 9.55705 18.9952 9.01313V8.98313C18.9952 8.43922 18.5543 7.99829 18.0104 7.99829Z" fill="#FFA800"/>
<path d="M10.0282 11.0016H5.97254C5.44027 11.0016 5.00879 11.4331 5.00879 11.9653V12.0319C5.00879 12.5642 5.44027 12.9956 5.97254 12.9956H10.0282C10.5604 12.9956 10.9919 12.5642 10.9919 12.0319V11.9653C10.9919 11.4331 10.5604 11.0016 10.0282 11.0016Z" fill="#FFA800"/>
</g>
<defs>
<clipPath id="clip0_1483_10413">
<rect width="24" height="24" fill="white"/>
</clipPath>
</defs>
</svg>
