<svg width="29" height="29" viewBox="0 0 29 29" fill="none" xmlns="http://www.w3.org/2000/svg">
<g clip-path="url(#clip0_1791_6704)">
<path d="M0.000153433 15.4482L0.000153417 15.2666C0.0542744 14.3689 0.435517 13.6444 1.14388 13.0929C1.15026 13.088 1.1545 13.0808 1.15573 13.0728C1.15696 13.0648 1.15509 13.0565 1.15051 13.0498C0.25861 11.7498 0.48835 10.1035 1.73315 9.14861C1.74425 9.14015 1.75165 9.12773 1.75381 9.11394C1.75598 9.10015 1.75273 9.08606 1.74474 9.07461C0.82081 7.7641 1.13339 6.18353 2.33014 5.18339C2.35849 5.15982 2.3618 5.13295 2.34008 5.10276C1.18586 3.49678 2.03523 1.2176 3.95489 0.757572C4.16622 0.706764 4.53237 0.67952 5.05333 0.675839C9.19602 0.644911 12.0632 0.646015 13.6548 0.679151C15.0586 0.708604 16.4183 0.967429 17.7338 1.45563C18.6332 1.78956 19.5329 2.12699 20.4327 2.46792C20.4526 2.47565 20.4625 2.46884 20.4625 2.44749L20.4608 1.24577C20.4608 1.22625 20.4708 1.2165 20.4907 1.2165L28.2759 1.21705L28.2759 18.706L20.5017 18.7077C20.4909 18.7077 20.4805 18.7034 20.4728 18.6957C20.4651 18.6881 20.4608 18.6777 20.4608 18.6668L20.4625 16.323C20.4625 16.3214 20.462 16.3198 20.461 16.3184C20.4601 16.317 20.4587 16.316 20.4572 16.3154C20.4556 16.3148 20.454 16.3147 20.4523 16.3151C20.4507 16.3154 20.4493 16.3163 20.4481 16.3175C18.5999 18.2755 16.7983 20.2761 15.0432 22.3195C14.8985 22.4877 14.6899 22.7605 14.4175 23.1379C14.4068 23.1526 14.4014 23.169 14.4014 23.1871C14.3989 24.1042 14.3991 25.0209 14.402 25.9373C14.4031 26.3648 14.3755 26.6597 14.3192 26.822C14.1143 27.4102 13.5874 27.6272 12.9843 27.5952C10.3595 27.4538 8.3807 25.3762 8.30284 22.7497C8.29621 22.5262 8.29437 22.0895 8.29731 21.4397C8.29768 21.3031 8.31683 21.1693 8.35475 21.0382C8.62867 20.0869 8.90369 19.1383 9.17982 18.1924C9.18102 18.1882 9.1812 18.1837 9.18038 18.1793C9.17955 18.175 9.17773 18.1709 9.17506 18.1674C9.17238 18.1638 9.16893 18.161 9.16497 18.159C9.161 18.157 9.15664 18.156 9.15221 18.156C7.04883 18.1563 4.94159 18.156 2.83049 18.1549C1.28305 18.1543 0.126069 16.9868 0.000153433 15.4482ZM11.3474 16.502C11.3773 16.5023 11.3881 16.5167 11.38 16.545C10.9217 18.1252 10.4647 19.7027 10.0093 21.2774C9.97176 21.4062 9.95336 21.5365 9.95409 21.6684C9.95685 22.4216 9.90107 23.1722 10.1871 23.8741C10.6229 24.9438 11.5457 25.7148 12.7143 25.8981C12.7338 25.9014 12.7436 25.8931 12.7436 25.8733C12.7436 24.9569 12.7437 24.0405 12.7441 23.1241C12.7441 22.6359 12.9761 22.2913 13.2378 21.95C13.7095 21.3348 14.2021 20.7369 14.7157 20.1563C16.5816 18.0474 18.4896 15.9626 20.4399 13.9019C20.4542 13.8868 20.4614 13.8688 20.4614 13.8478L20.4614 4.27989C20.4614 4.25853 20.4515 4.24399 20.4316 4.23626C19.2392 3.78285 18.0392 3.30404 16.8314 2.89703C15.5571 2.46737 14.2407 2.27813 12.8822 2.32931C12.8494 2.33041 12.817 2.33096 12.785 2.33096C10.112 2.32176 7.43947 2.31899 4.76726 2.32268C3.09447 2.32433 3.05746 4.53393 4.58336 4.62339C4.60214 4.6245 4.61153 4.63444 4.61153 4.65322L4.61153 6.25477C4.61153 6.2589 4.6107 6.26299 4.6091 6.26679C4.6075 6.27059 4.60515 6.27401 4.6022 6.27686C4.59925 6.2797 4.59577 6.2819 4.59196 6.28333C4.58815 6.28475 4.5841 6.28537 4.58005 6.28514C4.22218 6.26968 3.81572 6.25698 3.50866 6.4083C2.45826 6.92687 2.78134 8.53616 3.96649 8.57647C3.98026 8.5769 3.99332 8.58268 4.00291 8.59258C4.0125 8.60247 4.01785 8.61571 4.01785 8.62949L4.01785 10.2045C4.01785 10.2149 4.01372 10.2249 4.00636 10.2323C3.99901 10.2396 3.98904 10.2437 3.97864 10.2437C3.69146 10.2471 3.3579 10.2194 3.10827 10.2912C1.79003 10.6679 2.11973 12.6085 3.4816 12.5362C3.48501 12.536 3.48842 12.5364 3.49163 12.5375C3.49484 12.5387 3.49778 12.5404 3.50027 12.5427C3.50276 12.545 3.50473 12.5477 3.50608 12.5508C3.50743 12.5538 3.50812 12.5571 3.50811 12.5605L3.50701 14.1797C3.50701 14.1832 3.5063 14.1867 3.50494 14.19C3.50357 14.1932 3.50157 14.1962 3.49905 14.1986C3.49653 14.2011 3.49354 14.2031 3.49026 14.2044C3.48698 14.2057 3.48347 14.2063 3.47994 14.2062C3.11821 14.1996 2.65873 14.1615 2.33842 14.3073C1.19856 14.8253 1.58735 16.4893 2.84429 16.4909C5.68733 16.4942 8.52171 16.4979 11.3474 16.502ZM22.1182 17.02C22.1182 17.0282 22.1214 17.036 22.1272 17.0418C22.133 17.0476 22.1409 17.0509 22.1491 17.0509L26.5882 17.0509C26.5964 17.0509 26.6042 17.0476 26.61 17.0418C26.6158 17.036 26.6191 17.0282 26.6191 17.02L26.6191 2.9031C26.6191 2.8949 26.6158 2.88703 26.61 2.88123C26.6042 2.87543 26.5964 2.87218 26.5882 2.87218L22.1491 2.87218C22.1409 2.87218 22.133 2.87543 22.1272 2.88123C22.1214 2.88703 22.1182 2.8949 22.1182 2.9031L22.1182 17.02Z" fill="#FB280C"/>
</g>
<defs>
<clipPath id="clip0_1791_6704">
<rect width="28.2757" height="28.2757" fill="white" transform="translate(28.2759 28.2761) rotate(180)"/>
</clipPath>
</defs>
</svg>
