<svg width="16" height="16" viewBox="0 0 16 16" fill="none" xmlns="http://www.w3.org/2000/svg">
<g clip-path="url(#clip0_1488_18990)">
<path d="M16 4.79979V4.98761C15.966 5.75115 15.8031 6.48802 15.5112 7.19823C14.9744 8.50542 14.1569 9.70354 13.2469 10.7782C11.7103 12.5929 9.91813 14.206 8.0125 15.626C8.00375 15.6325 7.995 15.6325 7.98625 15.626C6.20594 14.2964 4.53594 12.806 3.06375 11.1398C2.54396 10.5517 2.06344 9.93334 1.62219 9.28479C0.7525 8.00667 0.059375 6.54198 0 4.98167V4.79667C0.0515625 3.00479 1.10469 1.44261 2.73656 0.730107C3.5325 0.382607 4.47406 0.278232 5.34125 0.446357C6.39 0.649898 7.27021 1.16584 7.98187 1.99417C7.99604 2.01042 8.01 2.01032 8.02375 1.99386C9.06031 0.748544 10.7006 0.144794 12.3097 0.442919C13.0878 0.587294 13.7719 0.907398 14.3619 1.40323C15.399 2.2749 15.945 3.40709 16 4.79979ZM7.98938 4.01542C7.78875 3.65854 7.57188 3.22948 7.37563 2.94417C6.95875 2.33854 6.40625 1.90438 5.71812 1.64167C3.61281 0.838544 1.30094 2.29354 1.07625 4.52011C0.984375 5.43104 1.25219 6.36229 1.63875 7.18292C1.97729 7.90084 2.38594 8.57781 2.86469 9.21386C4.3075 11.1307 6.07313 12.811 7.99094 14.2979C7.99885 14.3042 8.00688 14.3042 8.015 14.2979C8.93896 13.5763 9.83812 12.7926 10.7125 11.947C11.6052 11.0834 12.4146 10.1669 13.1406 9.19729C14.22 7.75573 15.3737 5.66823 14.7769 3.81854C14.435 2.75854 13.5931 1.92323 12.5337 1.58354C11.1375 1.13573 9.61312 1.63761 8.73 2.79636C8.46656 3.14198 8.23656 3.60698 8.01156 4.01542C8.00427 4.02875 7.99688 4.02875 7.98938 4.01542Z" fill="white"/>
</g>
<defs>
<clipPath id="clip0_1488_18990">
<rect width="16" height="16" fill="white"/>
</clipPath>
</defs>
</svg>
