<svg width="54" height="50" viewBox="0 0 54 50" fill="none" xmlns="http://www.w3.org/2000/svg">
<rect width="54" height="50" rx="8" fill="#FF3B3B"/>
<g clip-path="url(#clip0_1483_10388)">
<path d="M39 20.1995V20.4812C38.9481 21.6381 38.6997 22.754 38.2547 23.829C37.4733 25.7157 36.3075 27.444 35.002 29.0054C32.6681 31.7973 29.9339 34.2657 27.0183 36.4393C27.0055 36.449 26.9927 36.449 26.9798 36.4393C24.3094 34.4443 21.8044 32.2093 19.5956 29.7095C18.8163 28.8273 18.0955 27.8996 17.4333 26.9265C16.1278 25.0084 15.0905 22.8137 15 20.4723V20.1948C15.1336 15.5893 19.6003 12.4426 23.9644 13.9164C24.8188 14.2048 25.598 14.6651 26.302 15.2973C26.5336 15.505 26.7619 15.7581 26.9817 16.0018C26.9936 16.0153 27.0056 16.0153 27.0178 16.0018C27.2381 15.76 27.4636 15.5054 27.6961 15.2996C29.0289 14.1203 30.5862 13.5387 32.3681 13.555C33.8845 13.569 35.4169 14.155 36.5559 15.115C38.1031 16.4193 38.9178 18.1142 39 20.1995Z" fill="#700101"/>
</g>
<defs>
<clipPath id="clip0_1483_10388">
<rect width="24" height="24" fill="white" transform="translate(15 13)"/>
</clipPath>
</defs>
</svg>
