<svg width="29" height="29" viewBox="0 0 29 29" fill="none" xmlns="http://www.w3.org/2000/svg">
<g clip-path="url(#clip0_1791_6708)">
<path d="M28.2757 12.8279V13.0096C28.2216 13.9072 27.8404 14.6317 27.132 15.1833C27.1256 15.1882 27.1214 15.1953 27.1201 15.2033C27.1189 15.2113 27.1208 15.2196 27.1254 15.2263C28.0173 16.5264 27.7875 18.1727 26.5427 19.1275C26.5316 19.136 26.5242 19.1484 26.5221 19.1622C26.5199 19.176 26.5232 19.1901 26.5311 19.2015C27.4551 20.512 27.1425 22.0926 25.9457 23.0927C25.9174 23.1163 25.9141 23.1432 25.9358 23.1734C27.09 24.7793 26.2406 27.0585 24.321 27.5186C24.1097 27.5694 23.7435 27.5966 23.2225 27.6003C19.0799 27.6312 16.2127 27.6301 14.6211 27.597C13.2172 27.5675 11.8576 27.3087 10.5421 26.8205C9.64265 26.4866 8.74302 26.1491 7.8432 25.8082C7.82332 25.8005 7.81338 25.8073 7.81338 25.8286L7.81503 27.0304C7.81503 27.0499 7.80509 27.0596 7.78521 27.0596L0 27.0591V9.5701L7.77417 9.56844C7.78501 9.56844 7.7954 9.57274 7.80306 9.58041C7.81073 9.58807 7.81503 9.59847 7.81503 9.60931L7.81338 11.9531C7.8134 11.9548 7.81392 11.9564 7.81486 11.9577C7.81581 11.9591 7.81714 11.9601 7.81869 11.9607C7.82023 11.9613 7.82192 11.9614 7.82353 11.9611C7.82515 11.9607 7.82661 11.9598 7.82774 11.9586C9.67597 10.0007 11.4776 8.00002 13.2327 5.95666C13.3774 5.7884 13.586 5.51558 13.8584 5.13821C13.8691 5.12348 13.8744 5.1071 13.8744 5.08906C13.877 4.17194 13.8768 3.25518 13.8739 2.3388C13.8728 1.91135 13.9004 1.61644 13.9567 1.45408C14.1616 0.865921 14.6885 0.648883 15.2915 0.680914C17.9164 0.822293 19.8952 2.8999 19.973 5.52645C19.9797 5.74993 19.9815 6.18658 19.9786 6.83641C19.9782 6.973 19.9591 7.10683 19.9211 7.2379C19.6472 8.18926 19.3722 9.13786 19.0961 10.0837C19.0949 10.088 19.0947 10.0924 19.0955 10.0968C19.0963 10.1011 19.0981 10.1052 19.1008 10.1088C19.1035 10.1123 19.1069 10.1152 19.1109 10.1171C19.1149 10.1191 19.1192 10.1201 19.1237 10.1201C21.227 10.1198 23.3343 10.1201 25.4454 10.1213C26.9928 10.1218 28.1498 11.2893 28.2757 12.8279ZM16.9284 11.7742C16.8986 11.7738 16.8878 11.7594 16.8958 11.7311C17.3542 10.1509 17.8111 8.57345 18.2666 6.99877C18.3041 6.86991 18.3225 6.73958 18.3218 6.60777C18.319 5.85449 18.3748 5.10397 18.0887 4.40204C17.653 3.33232 16.7302 2.56136 15.5616 2.37801C15.5421 2.3747 15.5323 2.38298 15.5323 2.40286C15.5323 3.31925 15.5321 4.23563 15.5318 5.15201C15.5318 5.64021 15.2998 5.98482 15.038 6.32612C14.5664 6.94134 14.0738 7.53925 13.5602 8.11986C11.6943 10.2288 9.78624 12.3135 7.83602 14.3742C7.82166 14.3893 7.81448 14.4073 7.81448 14.4283V23.9962C7.81448 24.0176 7.82442 24.0321 7.8443 24.0399C9.03663 24.4933 10.2367 24.9721 11.4445 25.3791C12.7187 25.8088 14.0351 25.998 15.3937 25.9468C15.4265 25.9457 15.4589 25.9452 15.4909 25.9452C18.1638 25.9544 20.8364 25.9571 23.5086 25.9534C25.1814 25.9518 25.2184 23.7422 23.6925 23.6527C23.6737 23.6516 23.6644 23.6417 23.6644 23.6229V22.0214C23.6643 22.0172 23.6652 22.0131 23.6668 22.0093C23.6684 22.0055 23.6707 22.0021 23.6737 21.9993C23.6766 21.9964 23.6801 21.9942 23.6839 21.9928C23.6877 21.9914 23.6918 21.9908 23.6958 21.991C24.0537 22.0064 24.4602 22.0191 24.7672 21.8678C25.8176 21.3493 25.4945 19.74 24.3094 19.6997C24.2956 19.6992 24.2826 19.6934 24.273 19.6835C24.2634 19.6737 24.258 19.6604 24.258 19.6466V18.0716C24.258 18.0612 24.2622 18.0512 24.2695 18.0439C24.2769 18.0365 24.2868 18.0324 24.2972 18.0324C24.5844 18.0291 24.918 18.0567 25.1676 17.9849C26.4858 17.6082 26.1561 15.6676 24.7943 15.7399C24.7909 15.7402 24.7875 15.7397 24.7842 15.7386C24.781 15.7375 24.7781 15.7357 24.7756 15.7334C24.7731 15.7312 24.7711 15.7284 24.7698 15.7253C24.7684 15.7223 24.7678 15.719 24.7678 15.7156L24.7689 14.0964C24.7689 14.0929 24.7696 14.0894 24.7709 14.0861C24.7723 14.0829 24.7743 14.0799 24.7768 14.0775C24.7794 14.075 24.7823 14.0731 24.7856 14.0718C24.7889 14.0705 24.7924 14.0698 24.7959 14.0699C25.1577 14.0765 25.6171 14.1146 25.9375 13.9688C27.0773 13.4508 26.6885 11.7869 25.4316 11.7852C22.5885 11.7819 19.7542 11.7782 16.9284 11.7742ZM6.1577 11.2561C6.1577 11.2479 6.15444 11.2401 6.14864 11.2343C6.14284 11.2285 6.13498 11.2252 6.12678 11.2252H1.68771C1.6795 11.2252 1.67164 11.2285 1.66584 11.2343C1.66004 11.2401 1.65678 11.2479 1.65678 11.2561V25.373C1.65678 25.3812 1.66004 25.3891 1.66584 25.3949C1.67164 25.4007 1.6795 25.4039 1.68771 25.4039H6.12678C6.13498 25.4039 6.14284 25.4007 6.14864 25.3949C6.15444 25.3891 6.1577 25.3812 6.1577 25.373V11.2561Z" fill="#00FF1A"/>
</g>
<defs>
<clipPath id="clip0_1791_6708">
<rect width="28.2757" height="28.2757" fill="white"/>
</clipPath>
</defs>
</svg>
