<svg width="40" height="27" viewBox="0 0 40 27" fill="none" xmlns="http://www.w3.org/2000/svg">
<path d="M18.5163 0.0155506C13.9049 0.58993 9.63006 2.8218 5.08906 7.03117C3.49971 8.49993 0.884713 11.4621 0.211392 12.5616C-0.0704639 13.0211 -0.0704639 13.6611 0.211392 14.1206C0.57154 14.7114 2.09043 16.5576 3.17087 17.7146C7.03073 21.8829 11.329 24.8041 15.3846 26.0185C17.1462 26.5436 18.0388 26.6667 20.0039 26.6667C21.9691 26.6667 22.8616 26.5436 24.6232 26.0185C29.3756 24.5907 34.5978 20.7096 38.763 15.4909C39.906 14.0632 40 13.8909 40 13.3411C40 12.7914 39.906 12.619 38.763 11.1913C34.6213 6.0137 29.4148 2.12434 24.7015 0.688395C23.12 0.204275 22.0709 0.0483723 20.3562 0.0155506C19.495 -0.00906563 18.6651 -0.000860214 18.5163 0.0155506ZM21.9221 2.87924C25.6097 3.46182 29.6262 5.73471 33.486 9.43535C34.6682 10.5595 36.9935 13.1606 36.9935 13.3493C36.9935 13.3739 36.7273 13.7268 36.3907 14.1206C31.834 19.5854 26.651 23.0563 21.9221 23.803C20.9199 23.9589 19.0879 23.9589 18.0857 23.803C14.68 23.2614 11.0472 21.3168 7.43785 18.1085C6.13036 16.9515 3.01429 13.5873 3.01429 13.3411C3.01429 13.3083 3.28049 12.9555 3.61715 12.5616C8.14249 7.13784 13.3255 3.65054 18.0153 2.88744C18.9704 2.73154 20.9513 2.73154 21.9221 2.87924Z" fill="#FF8A00"/>
<path d="M18.9091 5.1044C15.519 5.75262 13.1076 8.06655 12.2855 11.4554C12.0741 12.3251 12.0741 14.3601 12.2855 15.2299C13.0449 18.3479 15.2293 20.6372 18.2045 21.4331C19.0344 21.6547 20.976 21.6547 21.806 21.4331C24.7811 20.6372 26.9655 18.3479 27.7249 15.2299C27.8424 14.7539 27.8737 14.3273 27.8737 13.3426C27.8737 12.358 27.8424 11.9313 27.7249 11.4554C26.9811 8.37835 24.8594 6.12187 21.9234 5.28492C21.391 5.12901 19.3945 5.01414 18.9091 5.1044ZM21.2579 7.97629C22.722 8.32091 24.0608 9.44505 24.7419 10.922C25.1491 11.8 25.2743 12.4728 25.2352 13.5888C25.196 14.6473 25.0003 15.3611 24.5306 16.1981C24.2017 16.7889 23.2935 17.7407 22.7298 18.0853C21.0778 19.1028 18.9326 19.1028 17.2806 18.0853C16.7169 17.7407 15.8087 16.7889 15.4799 16.1981C14.509 14.4668 14.509 12.2185 15.4799 10.4871C15.8087 9.89635 16.7169 8.94452 17.2806 8.5999C18.4628 7.86962 19.8486 7.64807 21.2579 7.97629Z" fill="#FF8A00"/>
</svg>
