<svg width="16" height="16" viewBox="0 0 16 16" fill="none" xmlns="http://www.w3.org/2000/svg">
<g clip-path="url(#clip0_920_15974)">
<path d="M15.805 14.862L11.8257 10.8826C12.9101 9.55637 13.4433 7.86404 13.3149 6.15568C13.1865 4.44733 12.4065 2.85366 11.1361 1.70432C9.86565 0.554984 8.20207 -0.0620951 6.48944 -0.0192739C4.7768 0.0235473 3.14614 0.722992 1.93475 1.93439C0.723359 3.14578 0.0239135 4.77644 -0.0189077 6.48907C-0.0617289 8.2017 0.55535 9.86528 1.70469 11.1357C2.85403 12.4061 4.4477 13.1862 6.15605 13.3145C7.8644 13.4429 9.55674 12.9097 10.883 11.8253L14.8623 15.8046C14.9881 15.9261 15.1565 15.9933 15.3313 15.9918C15.5061 15.9902 15.6733 15.9201 15.7969 15.7965C15.9205 15.6729 15.9906 15.5057 15.9921 15.3309C15.9936 15.1561 15.9264 14.9877 15.805 14.862ZM6.66701 12C5.61218 12 4.58103 11.6872 3.70397 11.1011C2.82691 10.5151 2.14332 9.68216 1.73965 8.70762C1.33598 7.73308 1.23037 6.66073 1.43615 5.62616C1.64194 4.5916 2.14989 3.64129 2.89577 2.89541C3.64165 2.14953 4.59196 1.64158 5.62653 1.43579C6.66109 1.23 7.73345 1.33562 8.70799 1.73929C9.68253 2.14295 10.5155 2.82654 11.1015 3.7036C11.6875 4.58066 12.0003 5.61181 12.0003 6.66664C11.9988 8.08064 11.4363 9.43628 10.4365 10.4361C9.43664 11.436 8.08101 11.9984 6.66701 12Z" fill="#101010"/>
</g>
<defs>
<clipPath id="clip0_920_15974">
<rect width="16" height="16" fill="white"/>
</clipPath>
</defs>
</svg>
