<svg width="37" height="27" viewBox="0 0 37 27" fill="none" xmlns="http://www.w3.org/2000/svg">
<path d="M36.7842 8.34795L36.7842 18.7024C36.698 19.1126 36.4044 19.3176 35.9034 19.3176C29.5715 19.3168 23.2385 19.317 16.9042 19.3183C16.8793 19.3183 16.8669 19.3287 16.8669 19.3497C16.864 21.6839 16.8637 24.018 16.8661 26.3518C16.8669 26.9562 16.0227 27.2153 15.5169 26.7908C10.4256 22.5159 5.33565 18.2399 0.24718 13.9626C0.114028 13.8507 0.0316418 13.6971 3.3252e-05 13.5019C3.32523e-05 13.4971 3.32527e-05 13.4925 3.32531e-05 13.488C0.0287694 13.2868 0.0953473 13.1425 0.199759 13.0551C5.31027 8.77101 10.426 4.49153 15.5471 0.216682C15.821 -0.0119535 16.1216 -0.0596533 16.4487 0.0735835C16.7921 0.213663 16.864 0.4902 16.8647 0.815041C16.8657 3.10824 16.8659 5.40084 16.8654 7.69284C16.8653 7.69701 16.8662 7.70116 16.8681 7.70504C16.87 7.70891 16.8728 7.71245 16.8763 7.71543C16.8799 7.71841 16.8841 7.72077 16.8888 7.72239C16.8934 7.72401 16.8984 7.72484 16.9035 7.72484C23.2377 7.72484 29.5773 7.72484 35.9221 7.72484C36.4163 7.72484 36.7037 7.93255 36.7842 8.34795Z" fill="#FFA800"/>
</svg>
