<svg width="693" height="579" viewBox="0 0 693 579" fill="none" xmlns="http://www.w3.org/2000/svg">
<rect x="9" y="23" width="670" height="556" rx="10" fill="#4641D9"/>
<path d="M675.512 224.738C675.421 224.706 675.337 224.655 675.266 224.588C675.194 224.521 675.136 224.439 675.095 224.349C674.849 223.775 675.081 223.354 675.791 223.088C679.486 221.748 681.88 219.233 682.975 215.543C683.019 215.395 683.105 215.265 683.222 215.169C683.338 215.073 683.48 215.015 683.629 215.002C683.778 214.99 683.927 215.024 684.057 215.101C684.187 215.177 684.292 215.292 684.358 215.43C686.116 219.202 688.885 221.905 692.666 223.539C692.77 223.582 692.858 223.659 692.917 223.756C692.977 223.854 693.006 223.968 692.999 224.084C692.992 224.199 692.951 224.309 692.881 224.399C692.81 224.489 692.714 224.553 692.607 224.584C688.64 225.753 686.006 228.367 684.706 232.427C684.654 232.591 684.554 232.734 684.42 232.837C684.285 232.939 684.123 232.996 683.956 233C683.788 233.003 683.624 232.953 683.486 232.856C683.348 232.758 683.242 232.619 683.184 232.457C681.778 228.658 679.22 226.085 675.512 224.738Z" fill="#8AF2FF"/>
<path d="M491.512 42.7382C491.421 42.7058 491.337 42.6546 491.266 42.5877C491.194 42.5208 491.136 42.4395 491.095 42.3486C490.849 41.7745 491.081 41.3542 491.791 41.0877C495.486 39.7482 497.88 37.2332 498.975 33.5427C499.019 33.3955 499.105 33.2652 499.222 33.1689C499.338 33.0726 499.48 33.0145 499.629 33.0024C499.778 32.9902 499.927 33.0245 500.057 33.1007C500.187 33.177 500.292 33.2916 500.358 33.4299C502.116 37.2024 504.885 39.9054 508.666 41.5387C508.77 41.5825 508.858 41.6585 508.917 41.7562C508.977 41.8539 509.006 41.9683 508.999 42.0835C508.992 42.1988 508.951 42.309 508.881 42.3988C508.81 42.4886 508.714 42.5535 508.607 42.5844C504.64 43.753 502.006 46.3672 500.706 50.4267C500.654 50.5907 500.554 50.734 500.42 50.8368C500.285 50.9395 500.123 50.9965 499.956 50.9998C499.788 51.0032 499.624 50.9528 499.486 50.8556C499.348 50.7584 499.242 50.6193 499.184 50.4575C497.778 46.6576 495.22 44.0845 491.512 42.7382Z" fill="#FFD775"/>
<path d="M0.512426 164.738C0.421347 164.706 0.337415 164.655 0.265619 164.588C0.193822 164.521 0.135708 164.439 0.0946024 164.349C-0.150832 163.775 0.0812871 163.354 0.791056 163.088C4.48583 161.748 6.88045 159.233 7.97495 155.543C8.01894 155.395 8.10484 155.265 8.22151 155.169C8.33819 155.073 8.48033 155.015 8.62938 155.002C8.77843 154.99 8.92747 155.024 9.0574 155.101C9.18733 155.177 9.29198 155.292 9.3579 155.43C11.1157 159.202 13.8853 161.905 17.6663 163.539C17.7699 163.582 17.8578 163.659 17.9174 163.756C17.9771 163.854 18.0056 163.968 17.9991 164.084C17.9925 164.199 17.9511 164.309 17.8808 164.399C17.8104 164.489 17.7144 164.553 17.6065 164.584C13.6398 165.753 11.0064 168.367 9.70625 172.427C9.65442 172.591 9.55435 172.734 9.41984 172.837C9.28534 172.939 9.12301 172.996 8.95562 173C8.78823 173.003 8.62412 172.953 8.48581 172.856C8.3475 172.758 8.24189 172.619 8.18386 172.457C6.77759 168.658 4.22047 166.085 0.512426 164.738Z" fill="#FFD775"/>
<path d="M159.019 0.284568C159.07 0.196211 159.144 0.123314 159.233 0.0733327C159.322 0.0233517 159.422 -0.00191826 159.524 0.000113539C159.625 0.00214534 159.724 0.0314038 159.811 0.084894C159.898 0.138384 159.969 0.214186 160.017 0.30454C161.79 3.70642 163.721 7.10496 165.81 10.5002C167.856 13.8355 175.24 16.8512 178.719 18.7585C178.805 18.8078 178.877 18.8794 178.926 18.966C178.975 19.0526 179.001 19.1509 179 19.2508C178.999 19.3507 178.971 19.4485 178.92 19.534C178.869 19.6196 178.796 19.6897 178.709 19.7372C175.269 21.5446 167.905 24.4106 165.869 27.686C163.912 30.8415 162.053 34.087 160.294 37.4223C159.951 38.0747 159.49 38.1745 158.91 37.7218C157.012 36.2239 153.74 28.7944 152.099 26.2879C151.941 26.0483 151.74 25.8619 151.496 25.7287L140.741 19.8969C139.753 19.3644 139.753 18.8318 140.741 18.2992L151.961 12.2877C152.161 12.1833 152.329 12.0204 152.445 11.8183L159.019 0.284568Z" fill="#FF6992"/>
<g filter="url(#filter0_d_1889_8048)">
<rect x="33" y="72" width="622" height="481" rx="8" fill="#001536"/>
</g>
<path d="M648.019 486.285C648.07 486.196 648.144 486.123 648.233 486.073C648.322 486.023 648.422 485.998 648.524 486C648.625 486.002 648.724 486.031 648.811 486.085C648.898 486.138 648.969 486.214 649.017 486.305C650.79 489.706 652.721 493.105 654.81 496.5C656.856 499.835 664.24 502.851 667.719 504.759C667.805 504.808 667.877 504.879 667.926 504.966C667.975 505.053 668.001 505.151 668 505.251C667.999 505.351 667.971 505.448 667.92 505.534C667.869 505.62 667.796 505.69 667.709 505.737C664.269 507.545 656.905 510.411 654.869 513.686C652.912 516.842 651.053 520.087 649.294 523.422C648.951 524.075 648.49 524.175 647.91 523.722C646.012 522.224 642.74 514.794 641.099 512.288C640.941 512.048 640.74 511.862 640.496 511.729L629.741 505.897C628.753 505.364 628.753 504.832 629.741 504.299L640.961 498.288C641.161 498.183 641.329 498.02 641.445 497.818L648.019 486.285Z" fill="#FFD775"/>
<g filter="url(#filter1_d_1889_8048)">
<rect x="551" y="39" width="24" height="24" rx="3" fill="#D9D9D9"/>
</g>
<path d="M555 51L571 51" stroke="#000712"/>
<g filter="url(#filter2_d_1889_8048)">
<rect x="581" y="39" width="24" height="24" rx="3" fill="#D9D9D9"/>
</g>
<rect x="589.5" y="45.5" width="8" height="8" stroke="#000712"/>
<rect x="587.5" y="47.5" width="8" height="8" fill="#D9D9D9" stroke="#000712"/>
<g filter="url(#filter3_d_1889_8048)">
<rect x="611" y="39" width="24" height="24" rx="3" fill="#D9D9D9"/>
</g>
<path d="M618 46L628.5 56.5" stroke="black" stroke-width="2"/>
<path d="M628.5 46L618 56.5" stroke="black" stroke-width="2"/>
<defs>
<filter id="filter0_d_1889_8048" x="23" y="62" width="642" height="501" filterUnits="userSpaceOnUse" color-interpolation-filters="sRGB">
<feFlood flood-opacity="0" result="BackgroundImageFix"/>
<feColorMatrix in="SourceAlpha" type="matrix" values="0 0 0 0 0 0 0 0 0 0 0 0 0 0 0 0 0 0 127 0" result="hardAlpha"/>
<feOffset/>
<feGaussianBlur stdDeviation="5"/>
<feComposite in2="hardAlpha" operator="out"/>
<feColorMatrix type="matrix" values="0 0 0 0 0 0 0 0 0 0 0 0 0 0 0 0 0 0 0.25 0"/>
<feBlend mode="normal" in2="BackgroundImageFix" result="effect1_dropShadow_1889_8048"/>
<feBlend mode="normal" in="SourceGraphic" in2="effect1_dropShadow_1889_8048" result="shape"/>
</filter>
<filter id="filter1_d_1889_8048" x="546" y="34" width="34" height="34" filterUnits="userSpaceOnUse" color-interpolation-filters="sRGB">
<feFlood flood-opacity="0" result="BackgroundImageFix"/>
<feColorMatrix in="SourceAlpha" type="matrix" values="0 0 0 0 0 0 0 0 0 0 0 0 0 0 0 0 0 0 127 0" result="hardAlpha"/>
<feOffset/>
<feGaussianBlur stdDeviation="2.5"/>
<feComposite in2="hardAlpha" operator="out"/>
<feColorMatrix type="matrix" values="0 0 0 0 0 0 0 0 0 0 0 0 0 0 0 0 0 0 0.25 0"/>
<feBlend mode="normal" in2="BackgroundImageFix" result="effect1_dropShadow_1889_8048"/>
<feBlend mode="normal" in="SourceGraphic" in2="effect1_dropShadow_1889_8048" result="shape"/>
</filter>
<filter id="filter2_d_1889_8048" x="576" y="34" width="34" height="34" filterUnits="userSpaceOnUse" color-interpolation-filters="sRGB">
<feFlood flood-opacity="0" result="BackgroundImageFix"/>
<feColorMatrix in="SourceAlpha" type="matrix" values="0 0 0 0 0 0 0 0 0 0 0 0 0 0 0 0 0 0 127 0" result="hardAlpha"/>
<feOffset/>
<feGaussianBlur stdDeviation="2.5"/>
<feComposite in2="hardAlpha" operator="out"/>
<feColorMatrix type="matrix" values="0 0 0 0 0 0 0 0 0 0 0 0 0 0 0 0 0 0 0.25 0"/>
<feBlend mode="normal" in2="BackgroundImageFix" result="effect1_dropShadow_1889_8048"/>
<feBlend mode="normal" in="SourceGraphic" in2="effect1_dropShadow_1889_8048" result="shape"/>
</filter>
<filter id="filter3_d_1889_8048" x="606" y="34" width="34" height="34" filterUnits="userSpaceOnUse" color-interpolation-filters="sRGB">
<feFlood flood-opacity="0" result="BackgroundImageFix"/>
<feColorMatrix in="SourceAlpha" type="matrix" values="0 0 0 0 0 0 0 0 0 0 0 0 0 0 0 0 0 0 127 0" result="hardAlpha"/>
<feOffset/>
<feGaussianBlur stdDeviation="2.5"/>
<feComposite in2="hardAlpha" operator="out"/>
<feColorMatrix type="matrix" values="0 0 0 0 0 0 0 0 0 0 0 0 0 0 0 0 0 0 0.25 0"/>
<feBlend mode="normal" in2="BackgroundImageFix" result="effect1_dropShadow_1889_8048"/>
<feBlend mode="normal" in="SourceGraphic" in2="effect1_dropShadow_1889_8048" result="shape"/>
</filter>
</defs>
</svg>
