<svg width="24" height="24" viewBox="0 0 24 24" fill="none" xmlns="http://www.w3.org/2000/svg">
<path d="M6.09373 12.75C5.54154 12.75 5.18998 12.1659 5.41779 11.6737C5.57904 11.3254 5.88654 11.2509 6.27326 11.2504C7.9242 11.2495 9.57482 11.2495 11.2251 11.2504C11.2317 11.2504 11.238 11.2478 11.2427 11.243C11.2474 11.2383 11.25 11.2318 11.25 11.2251C11.25 9.58139 11.25 7.93467 11.25 6.28498C11.25 6.06498 11.2678 5.90857 11.3034 5.81576C11.5401 5.19982 12.4603 5.19279 12.6933 5.80732C12.7311 5.90701 12.75 6.07701 12.75 6.31732C12.75 7.95357 12.75 9.58951 12.75 11.2251C12.75 11.2317 12.7526 11.238 12.7573 11.2427C12.7619 11.2474 12.7682 11.25 12.7748 11.25C14.417 11.25 16.0622 11.25 17.7103 11.25C17.9175 11.25 18.0622 11.2634 18.1444 11.2903C18.7987 11.5064 18.8245 12.4284 18.1879 12.6904C18.0923 12.7298 17.9464 12.7495 17.7501 12.7495C16.0914 12.7501 14.4329 12.7503 12.7748 12.75C12.7682 12.75 12.7619 12.7526 12.7573 12.7573C12.7526 12.7619 12.75 12.7682 12.75 12.7748C12.75 14.4333 12.75 16.0948 12.75 17.7595C12.75 17.9233 12.7384 18.0433 12.7153 18.1195C12.5119 18.7912 11.565 18.8414 11.3044 18.1828C11.2687 18.0925 11.2508 17.9508 11.2504 17.7576C11.2498 16.0964 11.2497 14.4354 11.25 12.7748C11.25 12.7716 11.2494 12.7684 11.2482 12.7654C11.247 12.7623 11.2452 12.7596 11.2429 12.7573C11.2406 12.755 11.2378 12.7531 11.2348 12.7519C11.2317 12.7506 11.2284 12.75 11.2251 12.75C9.51795 12.75 7.80748 12.75 6.09373 12.75Z" fill="white"/>
</svg>
