<?xml version="1.0" encoding="UTF-8" standalone="no"?>
<!DOCTYPE svg PUBLIC "-//W3C//DTD SVG 1.1//EN" "http://www.w3.org/Graphics/SVG/1.1/DTD/svg11.dtd">
<svg xmlns="http://www.w3.org/2000/svg" version="1.1" viewBox="0.00 0.00 128.00 128.00">
<path fill="#e2ad39" d="
  M 65.01 20.90
  Q 68.40 10.26 78.30 9.32
  C 86.50 8.55 92.89 12.94 95.02 20.90
  Q 95.16 21.45 95.74 21.45
  L 114.54 21.46
  A 2.47 2.46 88.4 0 1 117.00 23.79
  L 117.03 24.34
  Q 117.20 27.38 114.16 27.38
  L 95.76 27.37
  Q 95.22 27.37 95.07 27.89
  C 90.43 43.70 69.44 43.67 65.02 27.77
  Q 64.91 27.38 64.51 27.38
  L 13.47 27.37
  A 2.48 2.48 0.0 0 1 10.99 24.96
  L 10.97 24.41
  A 2.88 2.87 89.2 0 1 13.84 21.45
  L 64.25 21.46
  Q 64.84 21.46 65.01 20.90
  Z
  M 89.39 24.40
  A 9.40 9.40 0.0 0 0 79.99 15.00
  A 9.40 9.40 0.0 0 0 70.59 24.40
  A 9.40 9.40 0.0 0 0 79.99 33.80
  A 9.40 9.40 0.0 0 0 89.39 24.40
  Z"
/>
<path fill="#e2ad39" d="
  M 62.86 67.50
  C 58.89 83.11 36.66 83.29 33.06 67.45
  Q 32.96 67.01 32.51 67.01
  L 13.47 66.99
  A 2.48 2.47 -0.8 0 1 11.00 64.60
  L 10.98 64.06
  Q 10.87 61.00 13.94 61.00
  L 32.21 61.00
  Q 32.71 61.00 32.87 60.52
  Q 36.54 49.28 46.98 48.84
  C 54.90 48.50 60.94 52.84 62.90 60.52
  Q 63.02 61.00 63.51 61.00
  L 114.09 61.00
  Q 117.17 61.00 117.02 64.09
  L 116.99 64.68
  A 2.44 2.42 -88.6 0 1 114.57 67.00
  L 63.50 67.00
  Q 62.99 67.00 62.86 67.50
  Z
  M 57.35 63.98
  A 9.40 9.40 0.0 0 0 47.95 54.58
  A 9.40 9.40 0.0 0 0 38.55 63.98
  A 9.40 9.40 0.0 0 0 47.95 73.38
  A 9.40 9.40 0.0 0 0 57.35 63.98
  Z"
/>
<path fill="#e2ad39" d="
  M 95.03 106.92
  C 91.34 122.62 68.59 122.91 65.15 107.07
  A 0.67 0.65 84.0 0 0 64.51 106.54
  L 13.83 106.55
  Q 10.86 106.55 10.97 103.58
  L 10.99 103.02
  A 2.49 2.49 0.0 0 1 13.48 100.63
  L 64.28 100.62
  Q 64.92 100.62 65.09 100.01
  C 69.51 84.08 90.44 84.50 95.16 100.32
  A 0.43 0.41 81.6 0 0 95.56 100.63
  L 114.23 100.62
  A 2.82 2.82 0.0 0 1 117.04 103.61
  L 116.99 104.34
  A 2.35 2.35 0.0 0 1 114.66 106.54
  L 95.49 106.55
  A 0.47 0.47 0.0 0 0 95.03 106.92
  Z
  M 89.40 103.57
  A 9.41 9.41 0.0 0 0 79.99 94.16
  A 9.41 9.41 0.0 0 0 70.58 103.57
  A 9.41 9.41 0.0 0 0 79.99 112.98
  A 9.41 9.41 0.0 0 0 89.40 103.57
  Z"
/>
</svg>
