<?xml version="1.0" encoding="UTF-8" standalone="no"?>
<!DOCTYPE svg PUBLIC "-//W3C//DTD SVG 1.1//EN" "http://www.w3.org/Graphics/SVG/1.1/DTD/svg11.dtd">
<svg xmlns="http://www.w3.org/2000/svg" version="1.1" viewBox="0.00 0.00 128.00 128.00">
<path fill="#ffa800" d="
  M 119.94 63.99
  A 55.94 55.94 0.0 0 1 64.00 119.93
  A 55.94 55.94 0.0 0 1 8.06 63.99
  A 55.94 55.94 0.0 0 1 64.00 8.05
  A 55.94 55.94 0.0 0 1 119.94 63.99
  Z
  M 111.99 64.00
  A 47.99 47.99 0.0 0 0 64.00 16.01
  A 47.99 47.99 0.0 0 0 16.01 64.00
  A 47.99 47.99 0.0 0 0 64.00 111.99
  A 47.99 47.99 0.0 0 0 111.99 64.00
  Z"
/>
<path fill="#ffa800" d="
  M 68.00 68.50
  L 68.00 87.97
  A 3.81 3.81 0.0 0 1 64.26 91.78
  L 63.14 91.79
  A 3.07 3.07 0.0 0 1 60.01 88.72
  L 60.00 68.50
  A 0.50 0.49 0.0 0 0 59.50 68.01
  L 39.27 67.99
  A 3.08 3.08 0.0 0 1 36.19 64.86
  L 36.21 63.76
  A 3.81 3.81 0.0 0 1 40.02 60.00
  L 59.50 60.00
  A 0.50 0.50 0.0 0 0 60.00 59.50
  L 60.00 40.03
  A 3.83 3.83 0.0 0 1 63.76 36.20
  L 64.85 36.19
  A 3.08 3.08 0.0 0 1 67.99 39.27
  L 68.01 59.50
  A 0.50 0.49 90.0 0 0 68.50 60.00
  L 88.72 60.01
  A 3.08 3.08 0.0 0 1 91.80 63.14
  L 91.78 64.25
  A 3.81 3.81 0.0 0 1 87.97 68.00
  L 68.50 68.00
  Q 68.00 68.00 68.00 68.50
  Z"
/>
</svg>
