<svg width="128" height="128" viewBox="0 0 128 128" fill="none" xmlns="http://www.w3.org/2000/svg">
<path d="M119.94 63.9898C119.94 78.826 114.046 93.0546 103.556 103.545C93.0648 114.036 78.8363 119.93 64.0001 119.93C49.1638 119.93 34.9353 114.036 24.4445 103.545C13.9537 93.0546 8.06006 78.826 8.06006 63.9898C8.06006 49.1536 13.9537 34.925 24.4445 24.4342C34.9353 13.9435 49.1638 8.0498 64.0001 8.0498C78.8363 8.0498 93.0648 13.9435 103.556 24.4342C114.046 34.925 119.94 49.1536 119.94 63.9898ZM111.99 63.9998C111.99 51.2721 106.934 39.0656 97.9341 30.0658C88.9342 21.0659 76.7278 16.0098 64.0001 16.0098C51.2723 16.0098 39.0659 21.0659 30.066 30.0658C21.0661 39.0656 16.0101 51.2721 16.0101 63.9998C16.0101 76.7275 21.0661 88.934 30.066 97.9339C39.0659 106.934 51.2723 111.99 64.0001 111.99C76.7278 111.99 88.9342 106.934 97.9341 97.9339C106.934 88.934 111.99 76.7275 111.99 63.9998Z" fill="#000712"/>
<path d="M68.0001 68.5V87.97C68.0003 88.9685 67.6085 89.9271 66.909 90.6397C66.2096 91.3522 65.2584 91.7617 64.2601 91.78L63.1401 91.79C62.7319 91.798 62.3263 91.7245 61.9468 91.5738C61.5674 91.4231 61.2219 91.1982 60.9304 90.9123C60.6389 90.6265 60.4074 90.2853 60.2494 89.9089C60.0914 89.5325 60.01 89.1283 60.0101 88.72L60.0001 68.5C60.0001 68.3701 59.9474 68.2454 59.8537 68.1536C59.7599 68.0617 59.6327 68.01 59.5001 68.01L39.2701 67.99C38.8614 67.9901 38.4568 67.9088 38.0798 67.7509C37.7028 67.593 37.361 67.3616 37.0743 67.0703C36.7877 66.779 36.5619 66.4335 36.41 66.0541C36.2582 65.6746 36.1835 65.2687 36.1901 64.86L36.2101 63.76C36.2233 62.7583 36.6305 61.802 37.3436 61.0982C38.0566 60.3945 39.0182 60 40.0201 60H59.5001C59.6327 60 59.7599 59.9474 59.8537 59.8536C59.9474 59.7598 60.0001 59.6326 60.0001 59.5V40.03C59.9999 39.0263 60.3938 38.0626 61.097 37.3463C61.8002 36.63 62.7565 36.2184 63.7601 36.2L64.8501 36.19C65.2596 36.1821 65.6666 36.2558 66.0472 36.407C66.4278 36.5582 66.7745 36.7839 67.0669 37.0707C67.3593 37.3575 67.5915 37.6997 67.7501 38.0773C67.9086 38.455 67.9902 38.8605 67.9901 39.27L68.0101 59.5C68.0101 59.6326 68.0617 59.7598 68.1536 59.8536C68.2455 59.9474 68.3701 60 68.5001 60L88.7201 60.01C89.1288 60.01 89.5335 60.0913 89.9104 60.2492C90.2874 60.4071 90.6292 60.6384 90.9159 60.9298C91.2025 61.2211 91.4283 61.5665 91.5802 61.946C91.732 62.3255 91.8067 62.7314 91.8001 63.14L91.7801 64.25C91.7644 65.2501 91.356 66.2038 90.6432 66.9054C89.9304 67.607 88.9703 68.0002 87.9701 68H68.5001C68.1668 68 68.0001 68.1667 68.0001 68.5Z" fill="#000712"/>
</svg>
