<svg width="33" height="32" viewBox="0 0 33 32" fill="none" xmlns="http://www.w3.org/2000/svg">
<g clip-path="url(#clip0_2138_1439)">
<path d="M15.9819 0H16.62C20.9996 0.156667 24.6996 1.75771 27.72 4.80312C30.6137 7.72062 32.1731 11.5637 32.2969 15.69V16.3231C32.1398 20.7027 30.5387 24.4027 27.4937 27.4231C24.5769 30.3162 20.7344 31.8756 16.6087 32H15.9738C11.5938 31.8433 7.89375 30.2423 4.87375 27.1969C1.98 24.2794 0.420625 20.4369 0.296875 16.3106V15.6806C0.423125 11.5575 1.9825 7.71812 4.87437 4.8025C7.89604 1.75542 11.5985 0.154583 15.9819 0ZM30.4175 16C30.4175 12.255 28.9298 8.66334 26.2817 6.01521C23.6335 3.36708 20.0419 1.87937 16.2969 1.87937C12.5519 1.87937 8.96022 3.36708 6.31209 6.01521C3.66395 8.66334 2.17625 12.255 2.17625 16C2.17625 19.745 3.66395 23.3367 6.31209 25.9848C8.96022 28.6329 12.5519 30.1206 16.2969 30.1206C20.0419 30.1206 23.6335 28.6329 26.2817 25.9848C28.9298 23.3367 30.4175 19.745 30.4175 16Z" fill="#24FF00"/>
<path d="M14.3242 19.13C14.3258 19.1317 14.3278 19.133 14.33 19.134C14.3321 19.1349 14.3345 19.1354 14.3369 19.1354C14.3393 19.1354 14.3416 19.1349 14.3439 19.134C14.3461 19.133 14.3481 19.1317 14.3499 19.13C17.0882 16.3916 19.827 13.6518 22.5661 10.9106C23.1255 10.3506 24.0274 10.5693 24.1992 11.3593C24.2899 11.775 24.0755 12.0568 23.7661 12.3662C20.9336 15.1991 18.1011 18.0318 15.2686 20.8643C15.0045 21.1289 14.798 21.2902 14.6492 21.3481C14.1392 21.5481 13.8067 21.2681 13.4311 20.8918C11.852 19.3114 10.273 17.7308 8.69424 16.15C8.42549 15.8808 8.32987 15.5795 8.40737 15.2462C8.54487 14.6556 9.19737 14.33 9.74299 14.6156C9.83549 14.6643 9.97258 14.7795 10.1542 14.9612C11.543 16.3529 12.933 17.7425 14.3242 19.13Z" fill="#24FF00"/>
</g>
<defs>
<clipPath id="clip0_2138_1439">
<rect width="32" height="32" fill="white" transform="translate(0.296875)"/>
</clipPath>
</defs>
</svg>
