<svg width="15" height="16" viewBox="0 0 15 16" fill="none" xmlns="http://www.w3.org/2000/svg">
<g clip-path="url(#clip0_1700_7921)">
<path d="M2.0748 0H2.32383C3.0584 0.0735417 3.62217 0.417292 4.01514 1.03125C4.74902 2.17844 4.37666 3.76062 3.23438 4.41156C1.80879 5.22375 0.111621 4.17938 0 2.47375V2.20937C0.0811523 0.9975 0.942774 0.098125 2.0748 0Z" fill="#E2AD39"/>
<path d="M15.0002 2.26965V2.41746C14.9348 2.85517 14.7236 3.12861 14.3665 3.23777C14.2704 3.26715 14.125 3.28184 13.9303 3.28184C11.0114 3.28142 8.09182 3.28121 5.1717 3.28121C5.16038 3.28121 5.15618 3.27527 5.15911 3.2634C5.31028 2.65027 5.31028 2.03715 5.15911 1.42402C5.15618 1.41215 5.16047 1.40621 5.172 1.40621C8.07454 1.40642 10.9767 1.40611 13.8784 1.40527C14.1081 1.40527 14.2734 1.42079 14.3741 1.45184C14.724 1.55913 14.9326 1.83173 15.0002 2.26965Z" fill="#E2AD39"/>
<path d="M7.5 10.3433C8.71352 10.3433 9.69727 9.29393 9.69727 7.99951C9.69727 6.70509 8.71352 5.65576 7.5 5.65576C6.28648 5.65576 5.30273 6.70509 5.30273 7.99951C5.30273 9.29393 6.28648 10.3433 7.5 10.3433Z" fill="#E2AD39"/>
<path d="M0 8.07604V7.91886C0.06875 7.48365 0.280176 7.2124 0.634277 7.10511C0.73291 7.07531 0.887598 7.06063 1.09834 7.06104C2.24834 7.06313 3.39873 7.06344 4.54951 7.06198C4.56123 7.06198 4.56553 7.06802 4.5624 7.08011C4.39834 7.71354 4.36875 8.28292 4.56592 8.91636C4.56671 8.9188 4.56694 8.92141 4.5666 8.92397C4.56626 8.92653 4.56535 8.92897 4.56394 8.93108C4.56254 8.93319 4.56068 8.93491 4.55853 8.9361C4.55638 8.93729 4.55399 8.93791 4.55156 8.93792C3.33359 8.93771 2.11426 8.93719 0.893555 8.93636C0.419824 8.93604 0.0527344 8.57573 0 8.07604Z" fill="#E2AD39"/>
<path d="M14.9994 7.92574V8.07387C14.9508 8.46324 14.7337 8.77637 14.39 8.8898C14.2918 8.9223 14.1058 8.93845 13.8319 8.93824C12.7028 8.93741 11.5755 8.9373 10.4499 8.93793C10.4473 8.93793 10.4448 8.93727 10.4425 8.936C10.4402 8.93474 10.4382 8.93291 10.4367 8.93066C10.4352 8.92841 10.4342 8.9258 10.4338 8.92305C10.4334 8.92029 10.4336 8.91747 10.4344 8.9148C10.5687 8.47605 10.606 8.03053 10.546 7.57824C10.5358 7.50178 10.5 7.33574 10.4385 7.08012C10.4355 7.06803 10.4398 7.06199 10.4514 7.06199C11.591 7.06345 12.7302 7.06314 13.8688 7.06105C14.1001 7.06043 14.2664 7.07553 14.3678 7.10637C14.7215 7.21324 14.932 7.48637 14.9994 7.92574Z" fill="#E2AD39"/>
<path d="M14.9991 13.533V13.7833C14.915 14.9946 14.0593 15.9124 12.9223 16.0002H12.6771C10.8876 15.8599 9.95626 13.6577 11.1047 12.1665C11.9101 11.1205 13.3852 11.0255 14.3083 11.9483C14.7253 12.3654 14.9556 12.8936 14.9991 13.533Z" fill="#E2AD39"/>
<path d="M0 13.7329V13.5751C0.0669922 13.1424 0.278418 12.8712 0.634277 12.7614C0.726856 12.7326 0.862207 12.7183 1.04033 12.7183C3.96924 12.7187 6.89854 12.7189 9.82822 12.7189C9.83955 12.7189 9.84385 12.7247 9.84111 12.7364C9.68955 13.3497 9.68955 13.9632 9.84111 14.5767C9.84404 14.5879 9.83994 14.5936 9.82881 14.5936C6.89346 14.594 3.9584 14.5942 1.02363 14.5942C0.855859 14.5942 0.72666 14.5801 0.636035 14.552C0.277441 14.4408 0.0654297 14.1677 0 13.7329Z" fill="#E2AD39"/>
</g>
<defs>
<clipPath id="clip0_1700_7921">
<rect width="15" height="16" fill="white"/>
</clipPath>
</defs>
</svg>
