<svg width="16" height="16" viewBox="0 0 16 16" fill="none" xmlns="http://www.w3.org/2000/svg">
<g clip-path="url(#clip0_1339_2639)">
<path d="M7.76719 0H8.23844C10.4011 0.0970833 12.2269 0.89875 13.7156 2.405C15.1409 3.8475 15.92 5.73094 16 7.76906V8.23594C15.9166 10.6181 14.8325 12.7694 12.9956 14.2494C12.9943 14.2504 12.9927 14.2511 12.9911 14.2514C12.9894 14.2516 12.9877 14.2514 12.9862 14.2507C12.9847 14.2501 12.9834 14.249 12.9824 14.2477C12.9815 14.2463 12.981 14.2448 12.9809 14.2431C12.8625 12.3241 11.6931 10.6825 9.91594 9.92344C9.90323 9.91802 9.9026 9.91146 9.91406 9.90375C11.5091 8.81781 11.9788 6.69563 10.8984 5.07031C10.0247 3.75563 8.35969 3.18188 6.85687 3.70875C5.20625 4.2875 4.20219 6.02875 4.60594 7.76C4.81448 8.65396 5.30771 9.36854 6.08563 9.90375C6.09625 9.91084 6.09562 9.91688 6.08375 9.92188C4.31531 10.6697 3.14125 12.3241 3.01719 14.2434C3.01709 14.2448 3.01662 14.2461 3.01583 14.2472C3.01504 14.2484 3.01396 14.2492 3.0127 14.2498C3.01145 14.2503 3.01006 14.2505 3.00871 14.2503C3.00735 14.2502 3.00607 14.2496 3.005 14.2488C1.16969 12.7719 0.08125 10.6169 0 8.24V7.75531C0.16125 3.51656 3.50031 0.1425 7.76719 0Z" fill="#E2AD39"/>
<path d="M8 9.53826C9.40435 9.53826 10.5428 8.39981 10.5428 6.99545C10.5428 5.59109 9.40435 4.45264 8 4.45264C6.59564 4.45264 5.45718 5.59109 5.45718 6.99545C5.45718 8.39981 6.59564 9.53826 8 9.53826Z" fill="#E2AD39"/>
<path d="M8.19437 15.9999H7.80156C6.43281 15.9592 5.16 15.5998 3.98312 14.9214C3.97187 14.9148 3.96573 14.9049 3.96469 14.8917C3.77156 12.5067 5.61312 10.4858 8 10.4761C10.3847 10.4664 12.2428 12.5389 12.0325 14.8992C12.0321 14.904 12.0306 14.9085 12.028 14.9125C12.0255 14.9165 12.0219 14.9197 12.0178 14.922C10.8376 15.6016 9.56312 15.9609 8.19437 15.9999Z" fill="#E2AD39"/>
</g>
<defs>
<clipPath id="clip0_1339_2639">
<rect width="16" height="16" fill="white"/>
</clipPath>
</defs>
</svg>
