<svg width="33" height="32" viewBox="0 0 33 32" fill="none" xmlns="http://www.w3.org/2000/svg">
<g clip-path="url(#clip0_2138_1450)">
<path d="M15.8344 0H16.7687C25.275 0.30875 31.9906 7.03937 32.2969 15.5387V16.4719C31.99 24.995 25.2425 31.6881 16.7494 32H15.8375C7.34562 31.6781 0.604375 24.9944 0.296875 16.4794V15.5106C0.445625 11.8598 1.65563 8.64396 3.92688 5.86312C6.84062 2.29625 11.1788 0.15875 15.8344 0ZM30.0069 15.9994C30.0069 12.3633 28.5624 8.87607 25.9913 6.30494C23.4202 3.73382 19.933 2.28938 16.2969 2.28938C12.6608 2.28938 9.17356 3.73382 6.60244 6.30494C4.03132 8.87607 2.58687 12.3633 2.58687 15.9994C2.58687 19.6355 4.03132 23.1227 6.60244 25.6938C9.17356 28.2649 12.6608 29.7094 16.2969 29.7094C19.933 29.7094 23.4202 28.2649 25.9913 25.6938C28.5624 23.1227 30.0069 19.6355 30.0069 15.9994Z" fill="#FF2424"/>
<path d="M16.2726 17.6443C14.7351 19.1743 13.2007 20.708 11.6695 22.2455C11.392 22.5247 11.174 22.6986 11.0157 22.7674C10.0732 23.178 9.12009 22.1743 9.54634 21.2555C9.61759 21.1013 9.76842 20.9095 9.99884 20.6799C11.5572 19.1257 13.1118 17.5718 14.6626 16.018C14.6651 16.0156 14.6671 16.0126 14.6684 16.0094C14.6698 16.0062 14.6705 16.0027 14.6705 15.9993C14.6705 15.9958 14.6698 15.9923 14.6684 15.9891C14.6671 15.9859 14.6651 15.983 14.6626 15.9805C13.1151 14.433 11.5703 12.8882 10.0282 11.3461C9.7478 11.0657 9.57572 10.8478 9.51197 10.6924C9.14759 9.80738 10.0976 8.83613 11.0026 9.21676C11.1472 9.27759 11.3324 9.42071 11.5582 9.64613C13.1249 11.2103 14.697 12.782 16.2745 14.3611C16.2895 14.3765 16.3047 14.3765 16.3201 14.3611C17.8388 12.8432 19.3599 11.3218 20.8832 9.79676C21.2049 9.47509 21.4465 9.2803 21.6082 9.21238C22.5013 8.83863 23.4976 9.83926 23.0538 10.7611C22.9943 10.8857 22.859 11.0532 22.6482 11.2636C21.0749 12.8386 19.5024 14.4113 17.9307 15.9818C17.926 15.9866 17.9234 15.9931 17.9234 15.9997C17.9234 16.0064 17.926 16.0128 17.9307 16.0174C19.4228 17.509 20.914 19.0003 22.4045 20.4911C22.7645 20.8511 22.9736 21.084 23.032 21.1899C23.2988 21.673 23.1138 22.3936 22.6163 22.6868C22.1676 22.9511 21.5813 22.9049 21.2063 22.528C19.5826 20.8955 17.9545 19.2676 16.322 17.6443C16.3057 17.6276 16.2893 17.6276 16.2726 17.6443Z" fill="#FF2424"/>
</g>
<defs>
<clipPath id="clip0_2138_1450">
<rect width="32" height="32" fill="white" transform="translate(0.296875)"/>
</clipPath>
</defs>
</svg>
