<svg width="24" height="24" viewBox="0 0 24 24" fill="none" xmlns="http://www.w3.org/2000/svg">
<path d="M23.5616 16.717C23.5616 21.0052 21.0052 23.5616 16.717 23.5616H15.315C14.6671 23.5616 14.137 23.0315 14.137 22.3835V15.586C14.137 15.2679 14.3961 14.997 14.7142 14.997L16.7876 14.9616C16.9526 14.9498 17.0939 14.832 17.1293 14.6671L17.5416 12.417C17.577 12.2049 17.412 12.0046 17.1882 12.0046L14.6789 12.04C14.349 12.04 14.0898 11.7808 14.0781 11.4627L14.0309 8.57642C14.0309 8.38793 14.1841 8.22301 14.3844 8.22301L17.2117 8.17587C17.412 8.17587 17.5652 8.02274 17.5652 7.82246L17.518 4.99505C17.518 4.79477 17.3649 4.64163 17.1646 4.64163L13.9838 4.68877C12.0282 4.72411 10.4731 6.32629 10.5085 8.2819L10.5674 11.5216C10.5792 11.8515 10.32 12.1107 9.99012 12.1224L8.57642 12.146C8.37615 12.146 8.22301 12.2992 8.22301 12.4994L8.25835 14.7378C8.25835 14.9381 8.41149 15.0912 8.61176 15.0912L10.0255 15.0676C10.3553 15.0676 10.6145 15.3268 10.6263 15.6449L10.7323 22.36C10.7441 23.0197 10.214 23.5616 9.55423 23.5616H6.84464C2.55643 23.5616 0 21.0052 0 16.7052V6.84464C0 2.55643 2.55643 0 6.84464 0H16.717C21.0052 0 23.5616 2.55643 23.5616 6.84464V16.717Z" fill="white"/>
</svg>
