<svg width="21" height="21" viewBox="0 0 21 21" fill="none" xmlns="http://www.w3.org/2000/svg">
<g clip-path="url(#clip0_1967_131)">
<path d="M10.6667 0.207031H11.0627C13.7811 0.304273 16.0777 1.29802 17.9524 3.18828C19.7485 4.99914 20.7164 7.38453 20.7932 9.94565V10.3386C20.6957 13.057 19.702 15.3535 17.812 17.2283C16.0015 19.024 13.6165 19.9919 11.0558 20.0691H10.6616C7.94301 19.9719 5.64645 18.9781 3.77197 17.0878C1.97585 15.277 1.00796 12.892 0.931152 10.3309V9.93983C1.00951 7.38065 1.9774 4.99759 3.77236 3.18789C5.64788 1.2966 7.94598 0.30298 10.6667 0.207031ZM19.6267 10.1381C19.6267 7.81357 18.7033 5.58428 17.0596 3.94061C15.416 2.29694 13.1867 1.37354 10.8622 1.37354C8.53769 1.37354 6.3084 2.29694 4.66473 3.94061C3.02106 5.58428 2.09766 7.81357 2.09766 10.1381C2.09766 12.4626 3.02106 14.6919 4.66473 16.3355C6.3084 17.9792 8.53769 18.9026 10.8622 18.9026C13.1867 18.9026 15.416 17.9792 17.0596 16.3355C18.7033 14.6919 19.6267 12.4626 19.6267 10.1381Z" fill="#FFA800"/>
<path d="M9.63791 12.0808C9.63891 12.0818 9.64011 12.0827 9.64146 12.0833C9.6428 12.0838 9.64426 12.0841 9.64575 12.0841C9.64723 12.0841 9.64871 12.0838 9.6501 12.0833C9.65148 12.0827 9.65275 12.0818 9.65382 12.0808C11.3535 10.3811 13.0534 8.68055 14.7536 6.97908C15.1008 6.6315 15.6605 6.76727 15.7672 7.25762C15.8235 7.51559 15.6904 7.69055 15.4984 7.88257C13.7403 9.64094 11.9822 11.3992 10.2241 13.1573C10.0601 13.3215 9.93196 13.4216 9.83964 13.4575C9.52308 13.5817 9.3167 13.4079 9.08356 13.1743C8.10339 12.1934 7.12334 11.2123 6.14343 10.2311C5.97662 10.064 5.91727 9.87706 5.96537 9.67016C6.05071 9.30357 6.45571 9.10145 6.79438 9.27874C6.85179 9.309 6.93688 9.3805 7.04964 9.49326C7.91162 10.3571 8.77438 11.2196 9.63791 12.0808Z" fill="#FFA800"/>
</g>
<defs>
<clipPath id="clip0_1967_131">
<rect width="19.8621" height="19.8621" fill="white" transform="translate(0.931152 0.207031)"/>
</clipPath>
</defs>
</svg>
