<svg width="21" height="21" viewBox="0 0 21 21" fill="none" xmlns="http://www.w3.org/2000/svg">
<path d="M9.31526 0.23737C7.90061 0.432619 6.65005 1.05387 5.63452 2.07449C4.70324 3.00193 4.11344 4.1113 3.8518 5.41148C3.74536 5.95286 3.74536 7.20423 3.8518 7.7456C4.11344 9.04579 4.70324 10.1552 5.63452 11.0826C6.55248 12.0056 7.57245 12.5558 8.8851 12.8443C9.4616 12.973 10.7166 12.9818 11.3064 12.8665C12.6058 12.6047 13.7055 12.0189 14.6368 11.0826C15.5592 10.164 16.1091 9.14341 16.3974 7.82991C16.5348 7.20867 16.5348 5.94842 16.3974 5.32717C16.1091 4.01367 15.5592 2.99305 14.6368 2.07449C13.71 1.14262 12.6013 0.547994 11.3286 0.299494C10.8851 0.210745 9.74985 0.175244 9.31526 0.23737ZM10.9029 1.67512C12.1179 1.85705 13.231 2.50493 14.0115 3.48117C15.5104 5.34936 15.4484 8.01185 13.8696 9.84897C13.1379 10.6965 12.0159 11.3133 10.8896 11.482C9.0004 11.7704 7.10681 10.9495 6.02476 9.36972C5.34183 8.37129 5.04028 7.00898 5.2354 5.80198C5.43496 4.5728 6.07354 3.47674 7.04029 2.70018C8.11791 1.83487 9.51482 1.46655 10.9029 1.67512Z" fill="#FFA800"/>
<path d="M9.84756 2.73611C9.68348 2.81155 9.53714 2.96686 9.47505 3.13105C9.44401 3.21093 9.42627 3.86767 9.42627 4.98592C9.42627 6.37486 9.43957 6.74317 9.48835 6.86298C9.57705 7.07154 11.5372 8.64685 11.7589 8.69123C12.2689 8.78441 12.6946 8.35842 12.6015 7.84367C12.5571 7.62623 12.4507 7.51529 11.6037 6.84523L10.8498 6.24617L10.8365 4.68417C10.8232 3.18874 10.8187 3.11774 10.73 3.00236C10.6813 2.9358 10.5881 2.83818 10.5261 2.7938C10.3753 2.68286 10.0249 2.6518 9.84756 2.73611Z" fill="#FFA800"/>
<path d="M2.41928 14.4592C1.38158 14.6811 0.485787 15.5863 0.268491 16.6291C0.002413 17.8938 0.618826 19.1896 1.75853 19.7487C2.44146 20.0859 1.896 20.0682 10.1355 20.0682C18.3706 20.0682 17.834 20.0859 18.517 19.7531C19.4394 19.2961 20.0691 18.2754 20.0691 17.2282C20.0691 16.181 19.4394 15.1603 18.517 14.7033C17.834 14.3705 18.3751 14.3882 10.1134 14.3926C3.94923 14.3926 2.65875 14.406 2.41928 14.4592ZM17.8074 15.9325C18.1267 16.0878 18.313 16.2653 18.4771 16.5715C18.6145 16.8288 18.6278 16.8821 18.6234 17.2282C18.6234 17.5477 18.6057 17.6409 18.5081 17.8317C18.3352 18.1645 18.1977 18.3065 17.8873 18.4751L17.6079 18.626H10.1355H2.66319L2.38381 18.4751C2.07782 18.3065 1.896 18.1201 1.74522 17.8051C1.60331 17.5122 1.60775 16.9353 1.75409 16.6291C1.94035 16.2475 2.30842 15.9458 2.70754 15.8481C2.78292 15.8304 6.16211 15.8215 10.2242 15.8215L17.6079 15.8304L17.8074 15.9325Z" fill="#FFA800"/>
<path d="M2.7518 16.5804C2.45468 16.7091 2.28616 17.0508 2.34825 17.3836C2.38816 17.5922 2.60989 17.8362 2.80945 17.8939C2.92031 17.9294 3.73628 17.9383 5.26623 17.9294C7.50128 17.9161 7.55893 17.9117 7.67867 17.8229C7.9137 17.6499 7.98466 17.5079 7.98466 17.2283C7.98466 16.9487 7.9137 16.8067 7.67867 16.6337C7.55893 16.5405 7.50128 16.5405 5.22188 16.5316C3.34604 16.5227 2.85823 16.5316 2.7518 16.5804Z" fill="#FFA800"/>
</svg>
