<svg width="17" height="21" viewBox="0 0 17 21" fill="none" xmlns="http://www.w3.org/2000/svg">
<path d="M1.14541 0.746559C0.687052 0.942659 0.540766 1.55009 0.862595 1.92795C1.05764 2.15275 1.24781 2.21014 1.77932 2.21014H2.24256V3.92722C2.24256 5.82605 2.27669 6.15607 2.53513 6.86395C2.8277 7.64357 3.44698 8.46623 4.22717 9.10236C4.73917 9.51848 5.62176 10.0924 6.2069 10.389C6.44096 10.5085 6.63113 10.6138 6.63113 10.6281C6.63113 10.6425 6.44096 10.7477 6.2069 10.8673C5.62176 11.1638 4.73917 11.7378 4.22717 12.1539C3.44698 12.79 2.8277 13.6127 2.53513 14.3923C2.27669 15.1002 2.24256 15.4302 2.24256 17.3242V19.0365L1.71105 19.0557C1.26244 19.0652 1.15517 19.0844 1.04301 19.1705C0.784576 19.357 0.706557 19.5101 0.706557 19.8114C0.706557 20.1127 0.784576 20.2658 1.04301 20.4523C1.17467 20.5527 1.17955 20.5527 8.48408 20.5527C15.7886 20.5527 15.7935 20.5527 15.9252 20.4523C16.1836 20.2658 16.2616 20.1127 16.2616 19.8114C16.2616 19.5101 16.1836 19.357 15.9252 19.1705C15.813 19.0844 15.7057 19.0652 15.262 19.0557L14.7354 19.0365L14.7159 17.1425C14.6915 15.0045 14.6768 14.9041 14.2819 14.0814C13.7162 12.8857 12.4143 11.7186 10.6979 10.8577C10.4736 10.7429 10.2883 10.6425 10.2883 10.6281C10.2883 10.6138 10.4736 10.5133 10.6979 10.3985C12.4338 9.52805 13.7309 8.35623 14.3111 7.12701C14.672 6.35695 14.6915 6.22781 14.711 4.11375L14.7354 2.21971L15.262 2.20057C15.7057 2.19101 15.813 2.17188 15.9252 2.08578C16.1836 1.89925 16.2616 1.74619 16.2616 1.44487C16.2616 1.14354 16.1836 0.99049 15.9252 0.803955C15.7935 0.703512 15.7789 0.703512 8.5426 0.693947C2.58877 0.684381 1.26732 0.693947 1.14541 0.746559ZM13.1652 3.89852C13.1652 5.42428 13.1555 5.62516 13.0677 5.95997C12.8239 6.90221 12.1851 7.6627 10.9856 8.4471C10.4297 8.80582 9.43494 9.34629 8.8498 9.59979L8.4402 9.78154L7.59662 9.37021C5.67052 8.43275 4.60751 7.58139 4.11989 6.58654C3.82732 5.99823 3.80294 5.78778 3.80294 3.89374V2.21014H8.48408H13.1652V3.89852ZM9.08873 11.7665C11.5122 12.9048 12.7264 13.981 13.0677 15.2963C13.1555 15.6311 13.1652 15.832 13.1652 17.3577V19.0461H8.48408H3.80294V17.3577C3.80294 15.478 3.8322 15.2484 4.11014 14.6697C4.58313 13.7036 5.63639 12.8474 7.50884 11.9291C8.00134 11.6899 8.42557 11.4891 8.44995 11.4891C8.47433 11.4891 8.76203 11.6134 9.08873 11.7665Z" fill="#FFA800"/>
</svg>
