<svg width="16" height="21" viewBox="0 0 16 21" fill="none" xmlns="http://www.w3.org/2000/svg">
<path d="M7.68353 0.22953C7.10699 0.373133 6.55306 0.819466 6.30436 1.33954L6.18001 1.60346H5.4226C4.37503 1.60346 4.34488 1.62286 4.34488 2.36416V2.7678H3.39529C2.68686 2.7678 2.38163 2.78333 2.20453 2.82602C1.48103 3.00455 0.878109 3.62553 0.731148 4.35131C0.701002 4.49879 0.689697 6.58685 0.689697 11.5159C0.689697 18.339 0.689697 18.4826 0.765062 18.7271C0.953473 19.3519 1.47726 19.8216 2.17061 19.9807C2.41178 20.035 3.06745 20.0389 8.39573 20.0311L14.3495 20.0195L14.602 19.9186C15.0655 19.7323 15.4725 19.3908 15.6496 19.0337C15.8493 18.6262 15.838 19.0414 15.838 11.5004C15.838 3.88169 15.8493 4.34355 15.6232 3.85452C15.4913 3.5712 15.058 3.12875 14.7753 2.98903C14.3872 2.79885 14.1724 2.7678 13.1362 2.7678H12.1828V2.36416C12.1828 1.89066 12.1527 1.78587 11.9869 1.68108C11.8738 1.61122 11.7947 1.60346 11.0825 1.60346H10.3025L10.1819 1.33954C10.0161 0.986355 9.61664 0.574953 9.27373 0.404182C8.81777 0.182957 8.1621 0.109215 7.68353 0.22953ZM8.75371 1.17653C9.13053 1.37447 9.34532 1.63839 9.45837 2.03038C9.59026 2.50388 9.65809 2.53493 10.5587 2.53493H11.2407V3.48581V4.43669H8.26384H5.28694V3.48969V2.53881L5.98029 2.52717C6.81307 2.51164 6.83191 2.50388 6.98641 2.08472C7.1296 1.68884 7.18613 1.59181 7.39715 1.39776C7.67223 1.1416 7.90586 1.05622 8.28268 1.07174C8.50501 1.08338 8.62936 1.11055 8.75371 1.17653ZM4.35242 4.36683C4.36372 4.98782 4.37126 5.04603 4.44662 5.15859C4.49184 5.22457 4.57851 5.30219 4.63503 5.32547C4.71417 5.35652 5.68637 5.36817 8.30906 5.36041L11.8738 5.34876L11.9755 5.25173C12.1564 5.08096 12.1828 4.95677 12.1828 4.29697V3.69151L13.155 3.70704L14.1234 3.71868L14.3382 3.82735C14.5681 3.94379 14.6962 4.07575 14.8319 4.33578L14.9148 4.49491L14.9261 11.3839C14.9336 16.7322 14.9261 18.3118 14.8884 18.4476C14.8319 18.6689 14.5945 18.9173 14.3458 19.0143C14.1687 19.0841 13.9614 19.088 8.36181 19.0997C2.0538 19.1113 2.3138 19.1191 1.97466 18.8978C1.79756 18.7814 1.69205 18.6378 1.63552 18.4282C1.60161 18.3118 1.59407 16.5265 1.60161 11.3839C1.61291 4.7433 1.61668 4.49103 1.68451 4.35907C1.86539 4.00589 2.10655 3.80407 2.42685 3.74197C2.51729 3.72256 2.98455 3.70704 3.46688 3.70316L4.33734 3.69928L4.35242 4.36683Z" fill="#FFA800"/>
<path d="M5.9836 6.85968C5.92331 6.89073 5.53895 7.24003 5.13575 7.63591C4.73254 8.03179 4.38963 8.35781 4.37833 8.35781C4.36325 8.35781 4.22006 8.21421 4.05802 8.03567C3.68873 7.63591 3.61337 7.58158 3.40988 7.58158C3.13103 7.58158 2.95016 7.83773 3.00668 8.15211C3.02552 8.26854 3.13103 8.4005 3.57946 8.86625C3.88092 9.18062 4.17484 9.46006 4.2389 9.48723C4.46123 9.58038 4.56297 9.51052 5.5691 8.52858C6.48478 7.63591 6.64305 7.4535 6.64305 7.29049C6.64305 7.15465 6.51116 6.94895 6.3755 6.8752C6.22477 6.7937 6.1381 6.78982 5.9836 6.85968Z" fill="#FFA800"/>
<path d="M7.60079 8.03102C7.45006 8.10476 7.35962 8.27165 7.35962 8.47347C7.35962 8.6947 7.53673 8.88099 7.77789 8.9198C7.86833 8.93145 9.13069 8.93921 10.5815 8.93145C13.4529 8.9198 13.3285 8.92756 13.4642 8.6947C13.6036 8.46571 13.5433 8.21343 13.3172 8.05819L13.1891 7.96892H10.4533C8.09442 7.96892 7.70253 7.98057 7.60079 8.03102Z" fill="#FFA800"/>
<path d="M5.94711 10.6527C5.90566 10.676 5.54014 11.0253 5.13317 11.429L4.39459 12.1586L4.04414 11.7899C3.67862 11.4057 3.52789 11.3164 3.33194 11.363C3.10208 11.4134 2.94381 11.6968 3.0041 11.949C3.03048 12.0538 4.02153 13.1483 4.16472 13.2337C4.274 13.2958 4.49256 13.2958 4.59431 13.2337C4.76011 13.1367 6.56134 11.3358 6.60656 11.2233C6.67062 11.0641 6.60279 10.839 6.45206 10.7071C6.32771 10.5984 6.08654 10.5712 5.94711 10.6527Z" fill="#FFA800"/>
<path d="M7.60077 11.8115C7.29177 11.9396 7.28047 12.4829 7.5857 12.6459C7.7515 12.7352 13.1099 12.7352 13.2908 12.6459C13.5169 12.5334 13.6036 12.2462 13.483 12.0056C13.3624 11.7649 13.4754 11.7727 10.442 11.7766C8.92342 11.7766 7.64222 11.7921 7.60077 11.8115Z" fill="#FFA800"/>
<path d="M5.9836 14.4304C5.92331 14.4576 5.53895 14.8069 5.13575 15.2028C4.73254 15.5987 4.38963 15.9247 4.37833 15.9247C4.36702 15.9247 4.22383 15.7811 4.05802 15.6026C3.6812 15.1989 3.6096 15.1485 3.40988 15.1485C3.13103 15.1485 2.95016 15.4046 3.00668 15.719C3.02552 15.8354 3.13103 15.9674 3.57946 16.4331C3.88092 16.7475 4.17484 17.0269 4.2389 17.0541C4.465 17.1511 4.56297 17.0774 5.5691 16.0955C6.48478 15.2028 6.64305 15.0204 6.64305 14.8574C6.64305 14.7215 6.51116 14.5158 6.3755 14.4421C6.22477 14.3606 6.1381 14.3567 5.9836 14.4304Z" fill="#FFA800"/>
<path d="M7.63836 15.5756C7.59691 15.5911 7.51401 15.6609 7.46125 15.7308C7.25023 15.987 7.37458 16.3751 7.69111 16.4682C7.90213 16.5264 13.0646 16.5187 13.2379 16.4566C13.3095 16.4294 13.4037 16.3518 13.4527 16.278C13.6035 16.0452 13.5507 15.789 13.3171 15.626L13.189 15.5367L10.4532 15.5406C8.9497 15.5406 7.68358 15.5562 7.63836 15.5756Z" fill="#FFA800"/>
</svg>
