<svg width="24" height="23" viewBox="0 0 24 23" fill="none" xmlns="http://www.w3.org/2000/svg">
<path fill-rule="evenodd" clip-rule="evenodd" d="M7.05266 0.069C8.33267 0.0127754 8.74067 0 12 0C15.26 0 15.6673 0.0134132 16.9466 0.069C18.2246 0.124587 19.0973 0.319449 19.8607 0.60375C20.6613 0.892619 21.3865 1.34523 21.986 1.93009C22.5963 2.50449 23.0687 3.19957 23.37 3.96686C23.6666 4.69839 23.8693 5.5347 23.928 6.7588C23.9867 7.98547 24 8.37647 24 11.5C24 14.6235 23.986 15.0145 23.928 16.2412C23.87 17.4653 23.6666 18.3016 23.37 19.0331C23.0633 19.789 22.6526 20.431 21.986 21.0699C21.3866 21.6548 20.6613 22.1075 19.8607 22.3962C19.0973 22.6805 18.2246 22.8748 16.9474 22.931C15.6673 22.9872 15.2593 23 12 23C8.74067 23 8.33267 22.9866 7.05266 22.931C5.77534 22.8754 4.90267 22.6805 4.13933 22.3962C3.35066 22.1024 2.68067 21.7088 2.014 21.0699C1.40361 20.4955 0.931287 19.8004 0.63 19.0331C0.333338 18.3016 0.130669 17.4653 0.072 16.2412C0.0133309 15.0145 0 14.6241 0 11.5C0 8.37584 0.0139963 7.98547 0.072 6.75945C0.130004 5.5347 0.333338 4.69839 0.63 3.96686C0.931429 3.19962 1.40372 2.50457 2.014 1.93009C2.61337 1.34512 3.33867 0.892484 4.13933 0.60375C4.90267 0.319449 5.77534 0.125225 7.05266 0.069ZM16.8493 2.139C15.584 2.08405 15.204 2.07191 12 2.07191C8.796 2.07191 8.416 2.08405 7.15067 2.139C5.98067 2.19011 5.34533 2.3773 4.92266 2.53511C4.36267 2.74339 3.96266 2.99255 3.54266 3.39505C3.12334 3.79755 2.86267 4.18089 2.64533 4.71755C2.48066 5.12261 2.28533 5.73147 2.232 6.85272C2.17466 8.06534 2.162 8.4295 2.162 11.5C2.162 14.5705 2.17466 14.9346 2.232 16.1473C2.28533 17.2685 2.48066 17.8774 2.64533 18.2825C2.83757 18.782 3.14421 19.2339 3.54266 19.605C3.92983 19.9868 4.40139 20.2807 4.92266 20.4649C5.34533 20.6227 5.98067 20.8099 7.15067 20.861C8.416 20.916 8.79533 20.9281 12 20.9281C15.2047 20.9281 15.584 20.916 16.8493 20.861C18.0193 20.8099 18.6547 20.6227 19.0774 20.4649C19.6373 20.2566 20.0374 20.0075 20.4574 19.605C20.8558 19.234 21.1624 18.782 21.3547 18.2825C21.5194 17.8774 21.7147 17.2685 21.768 16.1473C21.8254 14.9346 21.838 14.5705 21.838 11.5C21.838 8.4295 21.8254 8.06534 21.768 6.85272C21.7147 5.73147 21.5194 5.12261 21.3547 4.71755C21.1373 4.18089 20.8774 3.79755 20.4574 3.39505C20.0374 2.9932 19.6373 2.74339 19.0774 2.53511C18.6547 2.3773 18.0193 2.19011 16.8493 2.139ZM10.4678 15.045C10.9536 15.2379 11.4742 15.3371 12 15.3371C13.062 15.3371 14.0804 14.9329 14.8312 14.2133C15.5822 13.4937 16.0041 12.5176 16.0041 11.5C16.0041 10.4824 15.5822 9.50632 14.8312 8.78671C14.0804 8.0671 13.062 7.66283 12 7.66283C11.4742 7.66283 10.9536 7.76208 10.4678 7.95492C9.98193 8.14775 9.54058 8.43039 9.16877 8.78671C8.79697 9.14302 8.50203 9.56601 8.30082 10.0316C8.0996 10.4971 7.99604 10.9961 7.99604 11.5C7.99604 12.0039 8.0996 12.5029 8.30082 12.9684C8.50203 13.434 8.79697 13.857 9.16877 14.2133C9.54058 14.5696 9.98193 14.8522 10.4678 15.045ZM7.6386 7.32028C8.79532 6.21176 10.3642 5.58899 12 5.58899C13.6359 5.58899 15.2048 6.21176 16.3615 7.32028C17.5181 8.42881 18.168 9.93234 18.168 11.5C18.168 13.0677 17.5181 14.5711 16.3615 15.6797C15.2048 16.7882 13.6359 17.411 12 17.411C10.3642 17.411 8.79532 16.7882 7.6386 15.6797C6.48188 14.5711 5.83203 13.0677 5.83203 11.5C5.83203 9.93234 6.48188 8.42881 7.6386 7.32028ZM19.5357 6.46967C19.8091 6.20763 19.9627 5.85223 19.9627 5.48166C19.9627 5.11108 19.8091 4.75569 19.5357 4.49366C19.2622 4.23162 18.8914 4.08441 18.5047 4.08441C18.118 4.08441 17.7471 4.23162 17.4737 4.49366C17.2003 4.75569 17.0467 5.11108 17.0467 5.48166C17.0467 5.85223 17.2003 6.20763 17.4737 6.46967C17.7471 6.7317 18.118 6.87891 18.5047 6.87891C18.8914 6.87891 19.2622 6.7317 19.5357 6.46967Z" fill="white"/>
</svg>
