<svg width="26" height="32" viewBox="0 0 26 32" fill="none" xmlns="http://www.w3.org/2000/svg">
<path d="M1.02851 0.0900517C0.292629 0.405993 0.0577734 1.38464 0.574455 1.9934C0.887595 2.35557 1.19291 2.44804 2.04621 2.44804H2.78992V5.21445C2.78992 8.27367 2.84472 8.80537 3.25963 9.94584C3.72934 11.2019 4.72356 12.5273 5.97612 13.5522C6.79812 14.2226 8.21508 15.1473 9.1545 15.6251C9.53026 15.8177 9.83558 15.9872 9.83558 16.0103C9.83558 16.0335 9.53026 16.203 9.1545 16.3956C8.21508 16.8734 6.79812 17.7981 5.97612 18.4685C4.72356 19.4934 3.72934 20.8188 3.25963 22.0749C2.84472 23.2153 2.78992 23.747 2.78992 26.7985V29.5572L1.93661 29.5881C1.21639 29.6035 1.04417 29.6343 0.864109 29.773C0.449199 30.0735 0.323943 30.3201 0.323943 30.8056C0.323943 31.2911 0.449199 31.5376 0.864109 31.8382C1.07548 32 1.08331 32 12.8104 32C24.5375 32 24.5453 32 24.7567 31.8382C25.1716 31.5376 25.2969 31.2911 25.2969 30.8056C25.2969 30.3201 25.1716 30.0735 24.7567 29.773C24.5767 29.6343 24.4044 29.6035 23.692 29.5881L22.8466 29.5572L22.8152 26.5057C22.7761 23.0612 22.7526 22.8994 22.1185 21.574C21.2104 19.6475 19.1202 17.7673 16.3645 16.3802C16.0044 16.1953 15.707 16.0335 15.707 16.0103C15.707 15.9872 16.0044 15.8254 16.3645 15.6405C19.1515 14.238 21.2339 12.3501 22.1655 10.3697C22.7448 9.12902 22.7761 8.92096 22.8074 5.51497L22.8466 2.46346L23.692 2.43263C24.4044 2.41722 24.5767 2.3864 24.7567 2.24769C25.1716 1.94716 25.2969 1.70057 25.2969 1.21511C25.2969 0.729637 25.1716 0.483051 24.7567 0.182522C24.5453 0.0206985 24.5219 0.0206985 12.9044 0.00528717C3.34575 -0.0101242 1.22422 0.00528717 1.02851 0.0900517ZM20.3258 5.16821C20.3258 7.62638 20.3101 7.95002 20.1692 8.48944C19.7778 10.0075 18.7522 11.2327 16.8264 12.4965C15.934 13.0744 14.337 13.9452 13.3975 14.3536L12.74 14.6464L11.3856 13.9837C8.29336 12.4734 6.58675 11.1017 5.8039 9.4989C5.33419 8.55108 5.29504 8.21202 5.29504 5.16051V2.44804H12.8104H20.3258V5.16821ZM13.7811 17.8443C17.6719 19.6783 19.6212 21.4122 20.1692 23.5313C20.3101 24.0707 20.3258 24.3943 20.3258 26.8525V29.5727H12.8104H5.29504V26.8525C5.29504 23.8241 5.34201 23.4542 5.78824 22.5218C6.5476 20.9652 8.23856 19.5859 11.2447 18.1063C12.0354 17.721 12.7165 17.3974 12.7556 17.3974C12.7948 17.3974 13.2566 17.5978 13.7811 17.8443Z" fill="#FFF500"/>
</svg>
