<svg width="25" height="32" viewBox="0 0 25 32" fill="none" xmlns="http://www.w3.org/2000/svg">
<path d="M11.5647 0.0925083C10.6359 0.323868 9.74341 1.04296 9.34272 1.88086L9.14238 2.30606H7.9221C6.23435 2.30606 6.18578 2.33732 6.18578 3.53164V4.18194H4.65588C3.51453 4.18194 3.02277 4.20695 2.73743 4.27574C1.57179 4.56337 0.600427 5.56385 0.363656 6.73315C0.315088 6.97076 0.296875 10.3349 0.296875 18.2761C0.296875 29.2688 0.296875 29.5002 0.418296 29.8941C0.721848 30.9008 1.56572 31.6574 2.68279 31.9138C3.07134 32.0014 4.1277 32.0076 12.7121 31.9951L22.3044 31.9763L22.7111 31.8138C23.4579 31.5136 24.1136 30.9634 24.3989 30.3881C24.7207 29.7315 24.7024 30.4006 24.7024 18.2511C24.7024 5.97654 24.7207 6.72064 24.3564 5.93277C24.1439 5.47631 23.4457 4.76347 22.9904 4.53836C22.3651 4.23197 22.019 4.18194 20.3495 4.18194H18.8135V3.53164C18.8135 2.76877 18.765 2.59995 18.4978 2.43112C18.3157 2.31856 18.1882 2.30606 17.0408 2.30606H15.7841L15.5898 1.88086C15.3227 1.31184 14.6792 0.649021 14.1267 0.373892C13.3921 0.0174732 12.3357 -0.101334 11.5647 0.0925083ZM13.2889 1.61823C13.896 1.93713 14.242 2.36233 14.4242 2.99388C14.6367 3.75674 14.7459 3.80677 16.1969 3.80677H17.2958V5.33874V6.87071H12.4997H7.70354V5.34499V3.81302L8.82061 3.79426C10.1623 3.76925 10.1927 3.75674 10.4416 3.08142C10.6723 2.44362 10.7633 2.2873 11.1033 1.97465C11.5465 1.56195 11.9229 1.42439 12.53 1.4494C12.8882 1.46816 13.0886 1.51193 13.2889 1.61823ZM6.19792 6.75816C6.21614 7.75863 6.22828 7.85243 6.3497 8.03376C6.42255 8.14006 6.56219 8.26512 6.65325 8.30264C6.78074 8.35266 8.34707 8.37142 12.5725 8.35892L18.3157 8.34016L18.4796 8.18384C18.771 7.9087 18.8135 7.70861 18.8135 6.64561V5.67015L20.3799 5.69516L21.9401 5.71392L22.2862 5.889C22.6565 6.07659 22.8629 6.28919 23.0815 6.70814L23.215 6.96451L23.2333 18.0635C23.2454 26.6801 23.2333 29.225 23.1725 29.4439C23.0815 29.8003 22.699 30.2005 22.2983 30.3568C22.013 30.4694 21.6791 30.4756 12.6575 30.4944C2.49459 30.5132 2.91349 30.5257 2.3671 30.1692C2.08176 29.9816 1.91177 29.7503 1.82071 29.4126C1.76607 29.225 1.75392 26.3487 1.76607 18.0635C1.78428 7.3647 1.79035 6.95826 1.89963 6.74566C2.19104 6.17664 2.57959 5.85148 3.09562 5.75144C3.24133 5.72017 3.99414 5.69516 4.77123 5.68891L6.17364 5.68265L6.19792 6.75816Z" fill="#00FFFF"/>
<path d="M8.826 10.7735C8.72886 10.8235 8.10961 11.3863 7.46001 12.0241C6.8104 12.6619 6.25793 13.1872 6.23972 13.1872C6.21544 13.1872 5.98473 12.9558 5.72368 12.6682C5.12871 12.0241 5.00729 11.9366 4.67945 11.9366C4.23019 11.9366 3.93878 12.3492 4.02985 12.8557C4.0602 13.0433 4.23019 13.2559 4.95265 14.0063C5.43834 14.5128 5.91188 14.963 6.01509 15.0068C6.37328 15.1568 6.5372 15.0443 8.15818 13.4623C9.63346 12.0241 9.88844 11.7302 9.88844 11.4676C9.88844 11.2487 9.67595 10.9173 9.4574 10.7985C9.21455 10.6672 9.07492 10.6609 8.826 10.7735Z" fill="#00FFFF"/>
<path d="M11.4315 12.6615C11.1887 12.7803 11.043 13.0492 11.043 13.3743C11.043 13.7307 11.3283 14.0309 11.7169 14.0934C11.8626 14.1122 13.8964 14.1247 16.2337 14.1122C20.8598 14.0934 20.6595 14.1059 20.8781 13.7307C21.1027 13.3618 21.0055 12.9554 20.6413 12.7052L20.4349 12.5614H16.0273C12.2268 12.5614 11.5954 12.5802 11.4315 12.6615Z" fill="#00FFFF"/>
<path d="M8.76717 16.8859C8.70039 16.9234 8.11149 17.4861 7.45581 18.1365L6.26588 19.312L5.70127 18.718C5.11237 18.0989 4.86953 17.9551 4.55383 18.0302C4.1835 18.1114 3.92851 18.5679 4.02565 18.9744C4.06815 19.1432 5.66484 20.9065 5.89554 21.0441C6.07161 21.1442 6.42373 21.1442 6.58765 21.0441C6.85478 20.8878 9.75675 17.9864 9.82961 17.8051C9.93282 17.5487 9.82354 17.186 9.58069 16.9734C9.38035 16.7983 8.9918 16.7545 8.76717 16.8859Z" fill="#00FFFF"/>
<path d="M11.4313 18.7528C10.9334 18.9592 10.9152 19.8346 11.407 20.0972C11.6741 20.241 20.3071 20.241 20.5985 20.0972C20.9628 19.9159 21.1024 19.4532 20.9081 19.0655C20.7139 18.6778 20.896 18.6903 16.0088 18.6966C13.5622 18.6966 11.498 18.7216 11.4313 18.7528Z" fill="#00FFFF"/>
<path d="M8.826 22.9717C8.72886 23.0155 8.10961 23.5782 7.46001 24.216C6.8104 24.8538 6.25793 25.3791 6.23972 25.3791C6.22151 25.3791 5.99081 25.1477 5.72368 24.8601C5.11657 24.2098 5.00122 24.1285 4.67945 24.1285C4.23019 24.1285 3.93878 24.5412 4.02985 25.0477C4.0602 25.2353 4.23019 25.4479 4.95265 26.1982C5.43834 26.7047 5.91188 27.155 6.01509 27.1987C6.37936 27.355 6.5372 27.2362 8.15818 25.6542C9.63346 24.216 9.88844 23.9221 9.88844 23.6595C9.88844 23.4407 9.67595 23.1093 9.4574 22.9904C9.21455 22.8591 9.07492 22.8529 8.826 22.9717Z" fill="#00FFFF"/>
<path d="M11.4919 24.8154C11.4251 24.8404 11.2915 24.953 11.2065 25.0655C10.8666 25.4782 11.0669 26.1035 11.5769 26.2536C11.9169 26.3474 20.2342 26.3349 20.5134 26.2348C20.6288 26.1911 20.7806 26.066 20.8595 25.9472C21.1023 25.572 21.0173 25.1593 20.6409 24.8967L20.4345 24.7529L16.0269 24.7591C13.6046 24.7591 11.5647 24.7842 11.4919 24.8154Z" fill="#00FFFF"/>
</svg>
