<svg width="33" height="32" viewBox="0 0 33 32" fill="none" xmlns="http://www.w3.org/2000/svg">
<path d="M14.9714 0.0502892C12.6922 0.364859 10.6774 1.36576 9.04129 3.0101C7.54091 4.5043 6.59067 6.29162 6.16913 8.38636C5.99766 9.25857 5.99766 11.2747 6.16913 12.1469C6.59067 14.2416 7.54091 16.029 9.04129 17.5232C10.5202 19.0102 12.1635 19.8967 14.2783 20.3614C15.2072 20.5687 17.2291 20.583 18.1793 20.3972C20.2727 19.9754 22.0446 19.0317 23.545 17.5232C25.0311 16.0432 25.917 14.3989 26.3814 12.2827C26.6029 11.2818 26.6029 9.25142 26.3814 8.25052C25.917 6.13433 25.0311 4.49 23.545 3.0101C22.0518 1.50875 20.2656 0.550739 18.2151 0.150379C17.5006 0.00739479 15.6716 -0.0498009 14.9714 0.0502892ZM17.5292 2.36666C19.4868 2.65978 21.2801 3.70358 22.5376 5.27642C24.9525 8.28627 24.8525 12.5758 22.309 15.5356C21.1301 16.9012 19.3225 17.8949 17.5077 18.1666C14.4641 18.6313 11.4133 17.3087 9.67002 14.7635C8.56974 13.1549 8.08391 10.9601 8.39827 9.0155C8.71978 7.03514 9.74862 5.26927 11.3062 4.01814C13.0423 2.62403 15.2929 2.03064 17.5292 2.36666Z" fill="#DB00FF"/>
<path d="M15.8286 4.07632C15.5643 4.19785 15.3285 4.44808 15.2285 4.7126C15.1785 4.84129 15.1499 5.89939 15.1499 7.70101C15.1499 9.93873 15.1713 10.5321 15.2499 10.7252C15.3928 11.0612 18.5508 13.5992 18.908 13.6707C19.7296 13.8208 20.4155 13.1345 20.2655 12.3051C20.194 11.9548 20.0226 11.7761 18.6579 10.6966L17.4433 9.73141L17.4219 7.21486C17.4005 4.80554 17.3933 4.69116 17.2504 4.50527C17.1718 4.39804 17.0218 4.24075 16.9218 4.16926C16.6789 3.99053 16.1144 3.94048 15.8286 4.07632Z" fill="#DB00FF"/>
<path d="M3.86106 22.963C2.18921 23.3205 0.745982 24.779 0.395893 26.459C-0.0327877 28.4966 0.960322 30.5842 2.7965 31.485C3.89678 32.0283 3.01799 31.9997 16.2928 31.9997C29.5605 31.9997 28.696 32.0283 29.7962 31.4921C31.2823 30.7558 32.2969 29.1114 32.2969 27.4242C32.2969 25.737 31.2823 24.0926 29.7962 23.3562C28.696 22.82 29.5676 22.8486 16.2571 22.8558C6.32597 22.8558 4.24687 22.8772 3.86106 22.963ZM28.6531 25.3366C29.1675 25.5868 29.4676 25.8728 29.7319 26.3661C29.9534 26.7808 29.9749 26.8665 29.9677 27.4242C29.9677 27.9389 29.9391 28.0891 29.7819 28.3965C29.5033 28.9327 29.2818 29.1615 28.7817 29.4331L28.3316 29.6762H16.2928H4.25402L3.8039 29.4331C3.31092 29.1615 3.01799 28.8612 2.77507 28.3536C2.54644 27.8817 2.55359 26.9523 2.78936 26.459C3.08944 25.8442 3.68244 25.358 4.32547 25.2008C4.44692 25.1722 9.89117 25.1579 16.4357 25.1579L28.3316 25.1722L28.6531 25.3366Z" fill="#DB00FF"/>
<path d="M4.39686 26.3801C3.91816 26.5874 3.64667 27.1379 3.74669 27.6741C3.81099 28.0101 4.16823 28.4033 4.48974 28.4962C4.66835 28.5534 5.98298 28.5677 8.44789 28.5534C12.0488 28.532 12.1417 28.5248 12.3346 28.3819C12.7133 28.103 12.8276 27.8743 12.8276 27.4238C12.8276 26.9734 12.7133 26.7447 12.3346 26.4658C12.1417 26.3157 12.0488 26.3157 8.37644 26.3014C5.35424 26.2871 4.56833 26.3014 4.39686 26.3801Z" fill="#DB00FF"/>
</svg>
