<svg width="16" height="16" viewBox="0 0 16 16" fill="none" xmlns="http://www.w3.org/2000/svg">
<g clip-path="url(#clip0_1339_2652)">
<path d="M0.649375 0H11.3756C11.675 0.045 11.8677 0.189792 11.9537 0.434375C11.9854 0.524167 12.0011 0.679167 12.0009 0.899375C11.9995 2.09313 11.9994 3.28698 12.0006 4.48094C12.0008 4.66656 11.9861 4.80271 11.9566 4.88938C11.755 5.47781 10.9059 5.47531 10.7097 4.88438C10.6797 4.79417 10.6649 4.6399 10.6653 4.42156C10.6676 3.39948 10.6676 2.37583 10.6653 1.35063C10.6653 1.33938 10.6597 1.33375 10.6484 1.33375H5.24969C5.24846 1.3338 5.24728 1.33428 5.24636 1.3351C5.24544 1.33593 5.24484 1.33704 5.24465 1.33826C5.24447 1.33948 5.24472 1.34073 5.24535 1.34179C5.24598 1.34284 5.24696 1.34365 5.24813 1.34406C5.94438 1.55385 6.63969 1.76271 7.33406 1.97063C7.635 2.06063 7.84531 2.13938 7.95094 2.42125C7.98385 2.50917 8.00031 2.67844 8.00031 2.92906C7.99969 6.39094 7.99969 9.85375 8.00031 13.3175C8.00031 13.3281 8.00562 13.3334 8.01625 13.3334L10.6444 13.3337C10.6499 13.3337 10.6553 13.3315 10.6592 13.3276C10.6631 13.3237 10.6653 13.3184 10.6653 13.3128C10.6666 12.288 10.6667 11.2603 10.6656 10.2297C10.6654 10.0174 10.6808 9.86583 10.7119 9.775C10.91 9.1975 11.7513 9.18844 11.9531 9.76812C11.9856 9.86104 12.0017 10.0278 12.0013 10.2684C11.9992 11.4403 11.9991 12.6123 12.0009 13.7844C12.0014 13.9892 11.9861 14.1365 11.9553 14.2262C11.8884 14.4219 11.7579 14.5532 11.5638 14.6203C11.4719 14.652 11.3128 14.6676 11.0866 14.6672C10.0643 14.6657 9.04146 14.6656 8.01812 14.6669C8.00688 14.6669 8.00115 14.6725 8.00094 14.6838C7.99885 14.8444 7.99844 15.0042 7.99969 15.1631C8.00073 15.3317 7.98875 15.4555 7.96375 15.5347C7.88021 15.7984 7.68573 15.9535 7.38031 16H7.29187C3.89771 15.3277 1.65458 14.8803 0.5625 14.6578C0.231875 14.5905 0.044375 14.3842 0 14.0387V0.648125C0.0470833 0.269583 0.263542 0.0535417 0.649375 0Z" fill="#E2AD39"/>
<path d="M16 7.297V7.37543C15.9815 7.54981 15.9242 7.68502 15.8281 7.78106C15.2306 8.37814 14.6337 8.97543 14.0375 9.57293C13.8381 9.77273 13.6941 9.89398 13.6053 9.93669C13.0503 10.2048 12.4597 9.58887 12.7387 9.04293C12.7823 8.95814 12.8905 8.83054 13.0634 8.66012C13.2797 8.44679 13.4942 8.23189 13.7069 8.01543C13.7162 8.00585 13.7142 8.00106 13.7006 8.00106C12.5487 7.99835 11.3975 7.99835 10.2469 8.00106C10.0235 8.00148 9.86614 7.98596 9.77469 7.9545C9.18937 7.75293 9.19562 6.90887 9.77593 6.71075C9.86885 6.67908 10.0302 6.66356 10.26 6.66418C11.406 6.66648 12.552 6.66648 13.6978 6.66418C13.712 6.66398 13.7142 6.65887 13.7044 6.64887C13.4823 6.42054 13.2578 6.19512 13.0309 5.97262C12.8822 5.82721 12.7866 5.71387 12.7441 5.63262C12.4528 5.07668 13.0494 4.45731 13.615 4.73512C13.699 4.77637 13.8102 4.86648 13.9487 5.00543C14.556 5.61398 15.1639 6.22189 15.7722 6.82918C15.9072 6.96356 15.9831 7.1195 16 7.297Z" fill="#E2AD39"/>
</g>
<defs>
<clipPath id="clip0_1339_2652">
<rect width="16" height="16" fill="white"/>
</clipPath>
</defs>
</svg>
