<svg width="24" height="23" viewBox="0 0 24 23" fill="none" xmlns="http://www.w3.org/2000/svg">
<path d="M12.6048 0.0191664C14.1127 0 15.609 0.00958321 17.1053 0C17.1974 1.46623 17.8305 2.96121 19.1196 3.9962C20.4088 5.05994 22.2274 5.54868 24 5.71159V9.57363C22.3425 9.52571 20.6735 9.23822 19.1657 8.64406C18.5096 8.39489 17.8995 8.07865 17.301 7.75282C17.2895 10.5511 17.3125 13.3494 17.278 16.1381C17.1859 17.4798 16.6564 18.8118 15.7241 19.9139C14.2162 21.7539 11.6034 22.9518 8.92152 22.9901C7.27554 23.0668 5.62957 22.693 4.22532 22.0031C1.90024 20.8627 0.265775 18.7735 0.0240585 16.531C0.00103788 16.0519 -0.0104724 15.5727 0.0125482 15.1031C0.219733 13.2823 1.3017 11.5382 2.9822 10.3499C4.89291 8.96989 7.5633 8.30865 10.061 8.70156C10.0841 10.1199 10.015 11.5382 10.015 12.9565C8.87547 12.6498 7.54028 12.7361 6.53888 13.3111C5.81374 13.704 5.26124 14.3077 4.97348 14.9881C4.73177 15.4769 4.80083 16.0135 4.81234 16.531C5.08859 18.1027 6.90721 19.4252 8.84094 19.2814C10.1301 19.2718 11.3617 18.6489 12.0293 17.7385C12.248 17.4223 12.4897 17.0965 12.5012 16.7227C12.6163 15.0073 12.5703 13.3015 12.5818 11.5861C12.5933 7.72407 12.5703 3.87162 12.6048 0.0191664Z" fill="white"/>
</svg>
