<svg width="21" height="21" viewBox="0 0 21 21" fill="none" xmlns="http://www.w3.org/2000/svg">
<g clip-path="url(#clip0_1967_121)">
<path d="M10.5749 0.69043H11.1548C16.4346 0.882068 20.6029 5.0597 20.793 10.3352V10.9144C20.6025 16.2046 16.4144 20.3589 11.1428 20.5525H10.5768C5.30599 20.3527 1.12177 16.2042 0.930908 10.919V10.3177C1.02324 8.05168 1.77427 6.05564 3.18401 4.32961C4.99255 2.11569 7.68518 0.788964 10.5749 0.69043ZM19.3716 10.6211C19.3716 8.36418 18.475 6.19971 16.8792 4.60384C15.2833 3.00797 13.1188 2.11142 10.8619 2.11142C8.60504 2.11142 6.44058 3.00797 4.84471 4.60384C3.24884 6.19971 2.35229 8.36418 2.35229 10.6211C2.35229 12.878 3.24884 15.0424 4.84471 16.6383C6.44058 18.2342 8.60504 19.1307 10.8619 19.1307C13.1188 19.1307 15.2833 18.2342 16.8792 16.6383C18.475 15.0424 19.3716 12.878 19.3716 10.6211Z" fill="#FFA800"/>
<path d="M10.8469 11.642C9.89257 12.5916 8.9402 13.5436 7.98977 14.4979C7.81752 14.6712 7.68227 14.7792 7.58399 14.8218C6.99899 15.0767 6.4074 14.4537 6.67196 13.8834C6.71619 13.7877 6.80981 13.6686 6.95283 13.5261C7.92007 12.5615 8.88498 11.597 9.84757 10.6326C9.84912 10.6311 9.85035 10.6292 9.85119 10.6272C9.85203 10.6252 9.85246 10.6231 9.85246 10.6209C9.85246 10.6188 9.85203 10.6166 9.85119 10.6146C9.85035 10.6126 9.84912 10.6108 9.84757 10.6093C8.88705 9.64878 7.92821 8.68994 6.97106 7.73279C6.79701 7.55874 6.6902 7.42348 6.65063 7.32701C6.42446 6.7777 7.01412 6.17486 7.57584 6.41111C7.66558 6.44887 7.78054 6.5377 7.92071 6.67762C8.89313 7.64848 9.8689 8.62399 10.848 9.60417C10.8574 9.61374 10.8668 9.61374 10.8764 9.60417C11.819 8.66201 12.7631 7.71766 13.7086 6.77111C13.9083 6.57145 14.0583 6.45055 14.1586 6.40839C14.713 6.17641 15.3314 6.79749 15.0559 7.36968C15.0189 7.44701 14.935 7.55098 14.8042 7.68158C13.8276 8.65917 12.8516 9.63533 11.8761 10.6101C11.8731 10.6131 11.8715 10.6171 11.8715 10.6212C11.8715 10.6254 11.8731 10.6293 11.8761 10.6322C12.8022 11.558 13.7278 12.4836 14.6529 13.409C14.8763 13.6324 15.0061 13.777 15.0424 13.8427C15.208 14.1426 15.0932 14.5899 14.7844 14.7718C14.5058 14.9359 14.142 14.9072 13.9092 14.6733C12.9014 13.66 11.8908 12.6496 10.8775 11.642C10.8674 11.6316 10.8572 11.6316 10.8469 11.642Z" fill="#FFA800"/>
</g>
<defs>
<clipPath id="clip0_1967_121">
<rect width="19.8621" height="19.8621" fill="white" transform="translate(0.930908 0.69043)"/>
</clipPath>
</defs>
</svg>
