<svg width="24" height="22" viewBox="0 0 24 22" fill="none" xmlns="http://www.w3.org/2000/svg">
<path d="M18.0072 0C18.8292 0 19.6033 0.144564 20.3297 0.433692C21.0562 0.72282 21.6918 1.11708 22.2366 1.61649C22.7814 2.11589 23.2115 2.69853 23.5269 3.3644C23.8423 4.03027 24 4.73994 24 5.49343V16.4803C24 17.2338 23.8423 17.9478 23.5269 18.6225C23.2115 19.2971 22.7814 19.8841 22.2366 20.3835C21.6918 20.8829 21.0562 21.2772 20.3297 21.5663C19.6033 21.8554 18.8292 22 18.0072 22H5.99283C5.17085 22 4.39665 21.8554 3.67025 21.5663C2.94385 21.2772 2.30824 20.8829 1.76344 20.3835C1.21864 19.8841 0.78853 19.2971 0.473118 18.6225C0.157706 17.9478 0 17.2338 0 16.4803V5.49343C0 4.73994 0.157706 4.03027 0.473118 3.3644C0.78853 2.69853 1.21864 2.11589 1.76344 1.61649C2.30824 1.11708 2.94385 0.72282 3.67025 0.433692C4.39665 0.144564 5.17085 0 5.99283 0H18.0072ZM17.7204 8.27957C18.2748 7.92911 18.7622 7.47352 19.1828 6.91278C18.9152 7.01792 18.6428 7.10554 18.3656 7.17563C18.0884 7.24572 17.8065 7.29829 17.5197 7.33333C18.1505 6.96535 18.5711 6.46595 18.7814 5.83513C18.2079 6.16806 17.5962 6.3871 16.9462 6.49223C16.3728 5.9315 15.6559 5.65113 14.7957 5.65113C14.3943 5.65113 14.0167 5.72123 13.6631 5.86141C13.3094 6.00159 13.0036 6.19434 12.7455 6.43967C12.4875 6.68499 12.282 6.96973 12.129 7.29391C11.9761 7.61808 11.8996 7.96416 11.8996 8.33214C11.8996 8.43728 11.9044 8.53803 11.914 8.63441C11.9235 8.73078 11.9379 8.83154 11.957 8.93668C10.7527 8.88411 9.63441 8.60812 8.60215 8.10872C7.56989 7.60932 6.69056 6.95659 5.96416 6.15054C5.69654 6.55356 5.56272 7.0004 5.56272 7.49104C5.56272 7.94663 5.6822 8.36718 5.92115 8.75269C6.1601 9.13819 6.47073 9.4536 6.85305 9.69892C6.62366 9.69892 6.39904 9.66826 6.17921 9.60693C5.95938 9.5456 5.74432 9.47113 5.53405 9.38351V9.4098C5.53405 10.0581 5.75866 10.6233 6.20789 11.1051C6.65711 11.587 7.21625 11.898 7.8853 12.0382C7.61768 12.0908 7.35962 12.1171 7.11111 12.1171H6.83871L6.56631 12.0645C6.75747 12.6077 7.09677 13.0502 7.58423 13.3919C8.07168 13.7336 8.64038 13.9132 9.29032 13.9307C8.79331 14.2812 8.23417 14.5615 7.6129 14.7718C6.99164 14.9821 6.34648 15.0872 5.67742 15.0872C5.54361 15.0872 5.41935 15.0828 5.30466 15.0741C5.18996 15.0653 5.07527 15.0522 4.96057 15.0346C5.61051 15.4202 6.31302 15.718 7.0681 15.9283C7.82318 16.1386 8.61171 16.2437 9.43369 16.2437C10.7718 16.2437 11.957 16.0115 12.9892 15.5472C14.0215 15.0828 14.8865 14.4871 15.5842 13.7599C16.282 13.0327 16.8124 12.2178 17.1756 11.3154C17.5388 10.413 17.7204 9.51493 17.7204 8.62127V8.27957Z" fill="white"/>
</svg>
