<svg width="24" height="16" viewBox="0 0 24 16" fill="none" xmlns="http://www.w3.org/2000/svg">
<path d="M23.499 2.46783C23.2139 1.50232 22.4247 0.74509 21.4081 0.47741C19.5363 2.28233e-05 12.0115 2.29387e-05 12.0115 2.29387e-05C12.0115 2.29387e-05 4.50091 -0.0114288 2.60958 0.47741C1.59827 0.745806 0.805274 1.50232 0.523187 2.46783C0.168328 4.29794 -0.0079757 6.15023 0.000276829 8.01111C-0.00347432 9.85982 0.17208 11.7092 0.523187 13.5279C0.805274 14.4934 1.59827 15.2506 2.60958 15.5226C4.4814 16 12.0115 16 12.0115 16C12.0115 16 19.5175 16 21.4081 15.5226C22.4247 15.2506 23.2139 14.4941 23.499 13.5279C23.8433 11.7092 24.0114 9.85982 23.9994 8.01111C24.0114 6.15023 23.8471 4.29794 23.499 2.46783ZM9.60772 11.4373V4.56991L15.8714 8.01111L9.60772 11.4373Z" fill="white"/>
</svg>
